<svg width="40" height="40" viewBox="0 0 40 40" fill="none" xmlns="http://www.w3.org/2000/svg">
<path d="M0 12C0 5.37258 5.37258 0 12 0H28C34.6274 0 40 5.37258 40 12V28C40 34.6274 34.6274 40 28 40H12C5.37258 40 0 34.6274 0 28V12Z" fill="white"/>
<path d="M15.6802 18.3334L18.4002 16.0168V23.9834L15.6802 21.6668H12.8002V18.3334H15.6802ZM12.0002 23.3334H15.1042L19.3442 26.9501C19.4189 27.0057 19.5069 27.0334 19.6082 27.0334C19.7095 27.0334 19.8002 26.9946 19.8802 26.9168C19.9602 26.839 20.0002 26.739 20.0002 26.6168V13.3834C20.0002 13.2834 19.9682 13.1918 19.9042 13.1084C19.8402 13.0251 19.7522 12.9779 19.6402 12.9668C19.5282 12.9557 19.4295 12.9834 19.3442 13.0501L15.1042 16.6668H12.0002C11.7762 16.6668 11.5869 16.7473 11.4322 16.9084C11.2775 17.0696 11.2002 17.2668 11.2002 17.5001V22.5001C11.2002 22.7334 11.2775 22.9307 11.4322 23.0918C11.5869 23.2529 11.7762 23.3334 12.0002 23.3334ZM28.8002 20.0001C28.8002 21.3446 28.5335 22.6223 28.0002 23.8334C27.4775 25.0112 26.7469 26.0279 25.8082 26.8834L24.6722 25.7001C25.4615 25.0001 26.0749 24.1668 26.5122 23.2001C26.9709 22.189 27.2002 21.1223 27.2002 20.0001C27.2002 18.8779 26.9709 17.8112 26.5122 16.8001C26.0749 15.8334 25.4615 15.0001 24.6722 14.3001L25.8082 13.1168C26.7469 13.9723 27.4775 14.989 28.0002 16.1668C28.5335 17.3779 28.8002 18.6557 28.8002 20.0001ZM24.8002 20.0001C24.8002 19.2223 24.6349 18.4834 24.3042 17.7834C23.9842 17.1057 23.5415 16.5334 22.9762 16.0668L21.8242 17.2668C22.2509 17.5668 22.5869 17.9584 22.8322 18.4418C23.0775 18.9251 23.2002 19.4446 23.2002 20.0001C23.2002 20.5557 23.0775 21.0751 22.8322 21.5584C22.5869 22.0418 22.2509 22.4334 21.8242 22.7334L22.9762 23.9334C23.5415 23.4668 23.9842 22.8946 24.3042 22.2168C24.6349 21.5168 24.8002 20.7779 24.8002 20.0001Z" fill="#374151"/>
</svg>
