<svg width="20" height="28" viewBox="0 0 20 28" fill="none" xmlns="http://www.w3.org/2000/svg">
<path d="M9.9998 4.83317L16.5758 6.34984C16.7571 6.39428 16.9065 6.49428 17.0238 6.64984C17.1411 6.80539 17.1998 6.97761 17.1998 7.1665V15.4832C17.1998 16.3276 17.0105 17.1165 16.6318 17.8498C16.2531 18.5832 15.7278 19.1832 15.0558 19.6498L9.9998 23.1665L4.9438 19.6498C4.2718 19.1832 3.74647 18.5832 3.3678 17.8498C2.98914 17.1165 2.7998 16.3276 2.7998 15.4832V7.1665C2.7998 6.97761 2.85847 6.80539 2.9758 6.64984C3.09314 6.49428 3.24247 6.39428 3.4238 6.34984L9.9998 4.83317ZM9.9998 6.53317L4.3998 7.83317V15.4832C4.3998 16.0498 4.52514 16.5776 4.7758 17.0665C5.02647 17.5554 5.3758 17.9554 5.8238 18.2665L9.9998 21.1665L14.1758 18.2665C14.6238 17.9554 14.9731 17.5554 15.2238 17.0665C15.4745 16.5776 15.5998 16.0498 15.5998 15.4832V7.83317L9.9998 6.53317ZM13.5678 10.8498L14.6878 12.0332L9.5998 17.3332L6.2078 13.7998L7.3438 12.6165L9.5998 14.9832L13.5678 10.8498Z" fill="#374151"/>
</svg>
