<svg width="40" height="40" viewBox="0 0 40 40" fill="none" xmlns="http://www.w3.org/2000/svg">
<path d="M0 12C0 5.37258 5.37258 0 12 0H28C34.6274 0 40 5.37258 40 12V28C40 34.6274 34.6274 40 28 40H12C5.37258 40 0 34.6274 0 28V12Z" fill="url(#paint0_linear_7_5103)"/>
<path d="M23.4402 12.8667L21.8402 14.5334H14.0482V26.2H25.2482V18.0834L26.8482 16.4167V27.0334C26.8482 27.2667 26.7682 27.4639 26.6082 27.625C26.4482 27.7861 26.2616 27.8667 26.0482 27.8667H13.2482C13.0242 27.8667 12.8349 27.7861 12.6802 27.625C12.5256 27.4639 12.4482 27.2667 12.4482 27.0334V13.7C12.4482 13.4778 12.5256 13.2834 12.6802 13.1167C12.8349 12.95 13.0242 12.8667 13.2482 12.8667H23.4402ZM26.4322 12.1334L27.5522 13.3L20.2082 20.9667H19.0722V19.7834L26.4322 12.1334Z" fill="white"/>
<defs>
<linearGradient id="paint0_linear_7_5103" x1="0" y1="0" x2="40" y2="40" gradientUnits="userSpaceOnUse">
<stop stopColor="#FF8DA1"/>
<stop offset="1" stopColor="#FFA8B7"/>
</linearGradient>
</defs>
</svg>
