<svg width="40" height="40" viewBox="0 0 40 40" fill="none" xmlns="http://www.w3.org/2000/svg">
<path d="M0 12C0 5.37258 5.37258 0 12 0H28C34.6274 0 40 5.37258 40 12V28C40 34.6274 34.6274 40 28 40H12C5.37258 40 0 34.6274 0 28V12Z" fill="url(#paint0_linear_7_5065)"/>
<path d="M20.8002 16.5V19.8333H26.4002C26.6242 19.8333 26.8135 19.9139 26.9682 20.075C27.1229 20.2361 27.2002 20.4333 27.2002 20.6667V27.3333H28.8002V29H11.2002V27.3333H12.8002V20.6667C12.8002 20.4333 12.8775 20.2361 13.0322 20.075C13.1869 19.9139 13.3762 19.8333 13.6002 19.8333H19.2002V16.5H20.8002ZM25.6002 21.5H14.4002V27.3333H25.6002V21.5ZM21.4722 11C21.6855 11.3889 21.7895 11.8056 21.7842 12.25C21.7789 12.6944 21.6722 13.1111 21.4642 13.5C21.2562 13.8889 20.9655 14.1944 20.5922 14.4167L19.2002 15.25C18.9869 14.8611 18.8802 14.4444 18.8802 14C18.8802 13.5556 18.9869 13.1389 19.2002 12.75C19.4135 12.3611 19.7069 12.0556 20.0802 11.8333L21.4722 11Z" fill="white"/>
<defs>
<linearGradient id="paint0_linear_7_5065" x1="0" y1="0" x2="40" y2="40" gradientUnits="userSpaceOnUse">
<stop stopColor="#FF4353"/>
<stop offset="1" stopColor="#FF6B78"/>
</linearGradient>
</defs>
</svg>
