<svg width="20" height="28" viewBox="0 0 20 28" fill="none" xmlns="http://www.w3.org/2000/svg">
<path d="M14.7998 11.0833H16.3998C16.6238 11.0833 16.8131 11.1639 16.9678 11.325C17.1225 11.4861 17.1998 11.6833 17.1998 11.9167V21.9167C17.1998 22.15 17.1225 22.3472 16.9678 22.5083C16.8131 22.6694 16.6238 22.75 16.3998 22.75H3.5998C3.3758 22.75 3.18647 22.6694 3.0318 22.5083C2.87714 22.3472 2.7998 22.15 2.7998 21.9167V11.9167C2.7998 11.6833 2.87714 11.4861 3.0318 11.325C3.18647 11.1639 3.3758 11.0833 3.5998 11.0833H5.1998V10.25C5.1998 9.35 5.41847 8.51111 5.8558 7.73333C6.28247 6.97778 6.85847 6.37778 7.5838 5.93333C8.33047 5.47778 9.1358 5.25 9.9998 5.25C10.8638 5.25 11.6691 5.47778 12.4158 5.93333C13.1411 6.37778 13.7171 6.97778 14.1438 7.73333C14.5811 8.51111 14.7998 9.35 14.7998 10.25V11.0833ZM4.3998 12.75V21.0833H15.5998V12.75H4.3998ZM9.1998 16.0833H10.7998V17.75H9.1998V16.0833ZM5.9998 16.0833H7.5998V17.75H5.9998V16.0833ZM12.3998 16.0833H13.9998V17.75H12.3998V16.0833ZM13.1998 11.0833V10.25C13.1998 9.65 13.0558 9.09444 12.7678 8.58333C12.4798 8.07222 12.0905 7.66667 11.5998 7.36667C11.1091 7.06667 10.5758 6.91667 9.9998 6.91667C9.4238 6.91667 8.89047 7.06667 8.3998 7.36667C7.90914 7.66667 7.5198 8.07222 7.2318 8.58333C6.9438 9.09444 6.7998 9.65 6.7998 10.25V11.0833H13.1998Z" fill="#374151"/>
</svg>
