<svg width="39" height="40" viewBox="0 0 39 40" fill="none" xmlns="http://www.w3.org/2000/svg">
<path d="M0 12C0 5.37258 5.37258 0 12 0H26.5469C33.1743 0 38.5469 5.37258 38.5469 12V28C38.5469 34.6274 33.1743 40 26.5469 40H12C5.37258 40 0 34.6274 0 28V12Z" fill="url(#paint0_linear_7_4871)"/>
<path d="M19.5454 13.3335C19.3641 13.8668 19.2734 14.4224 19.2734 15.0002H12.8734V26.6668H24.0734V20.0002C24.6281 20.0002 25.1614 19.9057 25.6734 19.7168V27.5002C25.6734 27.7335 25.5961 27.9307 25.4414 28.0918C25.2868 28.2529 25.0974 28.3335 24.8734 28.3335H12.0734C11.8494 28.3335 11.6601 28.2529 11.5054 28.0918C11.3508 27.9307 11.2734 27.7335 11.2734 27.5002V14.1668C11.2734 13.9335 11.3508 13.7363 11.5054 13.5752C11.6601 13.4141 11.8494 13.3335 12.0734 13.3335H19.5454ZM24.0734 16.6668C24.3614 16.6668 24.6281 16.5918 24.8734 16.4418C25.1188 16.2918 25.3134 16.0891 25.4574 15.8335C25.6014 15.5779 25.6734 15.3002 25.6734 15.0002C25.6734 14.7002 25.6014 14.4224 25.4574 14.1668C25.3134 13.9113 25.1188 13.7085 24.8734 13.5585C24.6281 13.4085 24.3614 13.3335 24.0734 13.3335C23.7854 13.3335 23.5188 13.4085 23.2734 13.5585C23.0281 13.7085 22.8334 13.9113 22.6894 14.1668C22.5454 14.4224 22.4734 14.7002 22.4734 15.0002C22.4734 15.3002 22.5454 15.5779 22.6894 15.8335C22.8334 16.0891 23.0281 16.2918 23.2734 16.4418C23.5188 16.5918 23.7854 16.6668 24.0734 16.6668ZM24.0734 18.3335C23.4974 18.3335 22.9641 18.1835 22.4734 17.8835C21.9828 17.5835 21.5934 17.1779 21.3054 16.6668C21.0174 16.1557 20.8734 15.6002 20.8734 15.0002C20.8734 14.4002 21.0174 13.8446 21.3054 13.3335C21.5934 12.8224 21.9828 12.4168 22.4734 12.1168C22.9641 11.8168 23.4974 11.6668 24.0734 11.6668C24.6494 11.6668 25.1828 11.8168 25.6734 12.1168C26.1641 12.4168 26.5534 12.8224 26.8414 13.3335C27.1294 13.8446 27.2734 14.4002 27.2734 15.0002C27.2734 15.6002 27.1294 16.1557 26.8414 16.6668C26.5534 17.1779 26.1641 17.5835 25.6734 17.8835C25.1828 18.1835 24.6494 18.3335 24.0734 18.3335Z" fill="white"/>
<defs>
<linearGradient id="paint0_linear_7_4871" x1="-0.713116" y1="0.739999" x2="39.2595" y2="39.2605" gradientUnits="userSpaceOnUse">
<stop stopColor="#FF4353"/>
<stop offset="1" stopColor="#FF6B78"/>
</linearGradient>
</defs>
</svg>
