<svg width="33" height="40" viewBox="0 0 33 40" fill="none" xmlns="http://www.w3.org/2000/svg">
<path d="M0 12C0 5.37258 5.37258 0 12 0H20.5938C27.2212 0 32.5938 5.37258 32.5938 12V28C32.5938 34.6274 27.2212 40 20.5938 40H12C5.37258 40 0 34.6274 0 28V12Z" fill="url(#paint0_linear_7_4620)"/>
<path d="M23.4969 12.5C23.7209 12.5 23.9102 12.5806 24.0649 12.7417C24.2195 12.9028 24.2969 13.1 24.2969 13.3333V26.6667C24.2969 26.9 24.2195 27.0972 24.0649 27.2583C23.9102 27.4194 23.7209 27.5 23.4969 27.5H9.09688C8.87288 27.5 8.68354 27.4194 8.52888 27.2583C8.37421 27.0972 8.29688 26.9 8.29688 26.6667V13.3333C8.29688 13.1 8.37421 12.9028 8.52888 12.7417C8.68354 12.5806 8.87288 12.5 9.09688 12.5H23.4969ZM15.4969 20.8333H9.89688V25.8333H15.4969V20.8333ZM22.6969 20.8333H17.0969V25.8333H22.6969V20.8333ZM15.4969 14.1667H9.89688V19.1667H15.4969V14.1667ZM22.6969 14.1667H17.0969V19.1667H22.6969V14.1667Z" fill="white"/>
<defs>
<linearGradient id="paint0_linear_7_4620" x1="-3.29197" y1="4.04" x2="35.8839" y2="35.9622" gradientUnits="userSpaceOnUse">
<stop stopColor="#FFD294"/>
<stop offset="1" stopColor="#FFDE9F"/>
</linearGradient>
</defs>
</svg>
