<svg width="25" height="32" viewBox="0 0 25 32" fill="none" xmlns="http://www.w3.org/2000/svg">
<path d="M2.3999 16C2.3999 15.1467 2.5023 14.3133 2.7071 13.5C3.2319 13.5267 3.7343 13.4067 4.2143 13.14C4.6943 12.8733 5.0719 12.4933 5.3471 12C5.6223 11.5067 5.7503 10.9767 5.7311 10.41C5.7119 9.84335 5.5615 9.32668 5.2799 8.86001C6.4575 7.64668 7.8399 6.81335 9.4271 6.36001C9.6703 6.85335 10.0223 7.25001 10.4831 7.55001C10.9439 7.85001 11.4495 8.00001 11.9999 8.00001C12.5503 8.00001 13.0559 7.85001 13.5167 7.55001C13.9775 7.25001 14.3295 6.85335 14.5727 6.36001C16.1599 6.81335 17.5423 7.64668 18.7199 8.86001C18.4383 9.32668 18.2879 9.84335 18.2687 10.41C18.2495 10.9767 18.3775 11.5067 18.6527 12C18.9279 12.4933 19.3055 12.8733 19.7855 13.14C20.2655 13.4067 20.7679 13.5267 21.2927 13.5C21.4975 14.3133 21.5999 15.1467 21.5999 16C21.5999 16.8533 21.4975 17.6867 21.2927 18.5C20.7679 18.4733 20.2655 18.5933 19.7855 18.86C19.3055 19.1267 18.9279 19.5067 18.6527 20C18.3775 20.4933 18.2495 21.0233 18.2687 21.59C18.2879 22.1567 18.4383 22.6733 18.7199 23.14C17.5423 24.3533 16.1599 25.1867 14.5727 25.64C14.3295 25.1467 13.9775 24.75 13.5167 24.45C13.0559 24.15 12.5503 24 11.9999 24C11.4495 24 10.9439 24.15 10.4831 24.45C10.0223 24.75 9.6703 25.1467 9.4271 25.64C7.8399 25.1867 6.4575 24.3533 5.2799 23.14C5.5615 22.6733 5.7119 22.1567 5.7311 21.59C5.7503 21.0233 5.6223 20.4933 5.3471 20C5.0719 19.5067 4.6943 19.1267 4.2143 18.86C3.7343 18.5933 3.2319 18.4733 2.7071 18.5C2.5023 17.6867 2.3999 16.8533 2.3999 16ZM7.0079 19C7.3151 19.5333 7.5135 20.1067 7.6031 20.72C7.6927 21.3333 7.6735 21.9333 7.5455 22.52C7.9423 22.8133 8.3583 23.0667 8.7935 23.28C9.2287 22.8667 9.7215 22.55 10.2719 22.33C10.8223 22.11 11.3983 22 11.9999 22C12.6015 22 13.1775 22.11 13.7279 22.33C14.2783 22.55 14.7711 22.8667 15.2063 23.28C15.6415 23.0667 16.0575 22.8133 16.4543 22.52C16.3263 21.9333 16.3071 21.3333 16.3967 20.72C16.4863 20.1067 16.6815 19.5333 16.9823 19C17.2831 18.4667 17.6639 18.0067 18.1247 17.62C18.5855 17.2333 19.0911 16.94 19.6415 16.74C19.6671 16.5 19.6799 16.2533 19.6799 16C19.6799 15.7467 19.6671 15.5 19.6415 15.26C19.0911 15.06 18.5855 14.7667 18.1247 14.38C17.6639 13.9933 17.2831 13.5333 16.9823 13C16.6815 12.4667 16.4863 11.8933 16.3967 11.28C16.3071 10.6667 16.3263 10.0667 16.4543 9.48001C16.0575 9.18668 15.6415 8.93335 15.2063 8.72001C14.7711 9.13335 14.2783 9.45001 13.7279 9.67001C13.1775 9.89001 12.6015 10 11.9999 10C11.3983 10 10.8223 9.89001 10.2719 9.67001C9.7215 9.45001 9.2287 9.13335 8.7935 8.72001C8.3583 8.93335 7.9423 9.18668 7.5455 9.48001C7.6735 10.0667 7.6927 10.6667 7.6031 11.28C7.5135 11.8933 7.3183 12.4667 7.0175 13C6.7167 13.5333 6.3359 13.9933 5.8751 14.38C5.4143 14.7667 4.9087 15.06 4.3583 15.26C4.3327 15.5 4.3199 15.7467 4.3199 16C4.3199 16.2533 4.3327 16.5 4.3583 16.74C4.9087 16.94 5.4143 17.2333 5.8751 17.62C6.3359 18.0067 6.7135 18.4667 7.0079 19ZM11.9999 19C11.4751 19 10.9919 18.8667 10.5503 18.6C10.1087 18.3333 9.7599 17.97 9.5039 17.51C9.2479 17.05 9.1199 16.5467 9.1199 16C9.1199 15.4533 9.2479 14.95 9.5039 14.49C9.7599 14.03 10.1087 13.6667 10.5503 13.4C10.9919 13.1333 11.4751 13 11.9999 13C12.5247 13 13.0079 13.1333 13.4495 13.4C13.8911 13.6667 14.2399 14.03 14.4959 14.49C14.7519 14.95 14.8799 15.4533 14.8799 16C14.8799 16.5467 14.7519 17.05 14.4959 17.51C14.2399 17.97 13.8911 18.3333 13.4495 18.6C13.0079 18.8667 12.5247 19 11.9999 19ZM11.9999 17C12.2687 17 12.4959 16.9033 12.6815 16.71C12.8671 16.5167 12.9599 16.28 12.9599 16C12.9599 15.72 12.8671 15.4833 12.6815 15.29C12.4959 15.0967 12.2687 15 11.9999 15C11.7311 15 11.5039 15.0967 11.3183 15.29C11.1327 15.4833 11.0399 15.72 11.0399 16C11.0399 16.28 11.1327 16.5167 11.3183 16.71C11.5039 16.9033 11.7311 17 11.9999 17Z" fill="currentColor"/>
</svg>
