<svg width="40" height="40" viewBox="0 0 40 40" fill="none" xmlns="http://www.w3.org/2000/svg">
<path d="M0 12C0 5.37258 5.37258 0 12 0H28C34.6274 0 40 5.37258 40 12V28C40 34.6274 34.6274 40 28 40H12C5.37258 40 0 34.6274 0 28V12Z" fill="url(#paint0_linear_7_4742)"/>
<path d="M20 28.3333C18.912 28.3333 17.872 28.1166 16.88 27.6833C15.9307 27.261 15.0853 26.6638 14.344 25.8916C13.6027 25.1194 13.0293 24.2388 12.624 23.2499C12.208 22.2166 12 21.1333 12 19.9999C12 18.8666 12.208 17.7833 12.624 16.7499C13.0293 15.761 13.6027 14.8805 14.344 14.1083C15.0853 13.336 15.9307 12.7388 16.88 12.3166C17.872 11.8833 18.912 11.6666 20 11.6666C21.088 11.6666 22.128 11.8833 23.12 12.3166C24.0693 12.7388 24.9147 13.336 25.656 14.1083C26.3973 14.8805 26.9707 15.761 27.376 16.7499C27.792 17.7833 28 18.8666 28 19.9999C28 21.1333 27.792 22.2166 27.376 23.2499C26.9707 24.2388 26.3973 25.1194 25.656 25.8916C24.9147 26.6638 24.0693 27.261 23.12 27.6833C22.128 28.1166 21.088 28.3333 20 28.3333ZM20 26.6666C21.1627 26.6666 22.24 26.361 23.232 25.7499C24.192 25.161 24.9547 24.3666 25.52 23.3666C26.1067 22.3333 26.4 21.211 26.4 19.9999C26.4 18.7888 26.1067 17.6666 25.52 16.6333C24.9547 15.6333 24.192 14.8388 23.232 14.2499C22.24 13.6388 21.1627 13.3333 20 13.3333C18.8373 13.3333 17.76 13.6388 16.768 14.2499C15.808 14.8388 15.0453 15.6333 14.48 16.6333C13.8933 17.6666 13.6 18.7888 13.6 19.9999C13.6 21.211 13.8933 22.3333 14.48 23.3666C15.0453 24.3666 15.808 25.161 16.768 25.7499C17.76 26.361 18.8373 26.6666 20 26.6666ZM16 22.7666C16.8533 22.6999 17.664 22.4888 18.432 22.1333C19.232 21.7555 19.944 21.2416 20.568 20.5916C21.192 19.9416 21.6853 19.1999 22.048 18.3666C22.3893 17.5666 22.592 16.7221 22.656 15.8333C22.9227 16.0221 23.168 16.2333 23.392 16.4666C24.0107 17.0999 24.4267 17.8555 24.64 18.7333C24.8533 19.5777 24.8533 20.4221 24.64 21.2666C24.4267 22.1444 24.0133 22.9027 23.4 23.5416C22.7867 24.1805 22.0587 24.611 21.216 24.8333C20.4053 25.0555 19.5947 25.0555 18.784 24.8333C17.9413 24.611 17.216 24.1777 16.608 23.5333C16.384 23.2999 16.1813 23.0444 16 22.7666Z" fill="white"/>
<defs>
<linearGradient id="paint0_linear_7_4742" x1="0" y1="0" x2="40" y2="40" gradientUnits="userSpaceOnUse">
<stop stopColor="#FFD294"/>
<stop offset="1" stopColor="#FFDE9F"/>
</linearGradient>
</defs>
</svg>
