<svg width="40" height="40" viewBox="0 0 40 40" fill="none" xmlns="http://www.w3.org/2000/svg">
<path d="M0 12C0 5.37258 5.37258 0 12 0H28C34.6274 0 40 5.37258 40 12V28C40 34.6274 34.6274 40 28 40H12C5.37258 40 0 34.6274 0 28V12Z" fill="white"/>
<path d="M18.4 15.8333C18.4 16.8888 18.656 17.8721 19.168 18.7833C19.6587 19.661 20.3253 20.3555 21.168 20.8666C22.0427 21.3999 22.9867 21.6666 24 21.6666C24.768 21.6666 25.504 21.511 26.208 21.1999C26.88 20.8999 27.4773 20.4721 28 19.9166V19.9999C28 21.1333 27.792 22.2166 27.376 23.2499C26.9707 24.2388 26.3973 25.1194 25.656 25.8916C24.9147 26.6638 24.0693 27.261 23.12 27.6833C22.128 28.1166 21.088 28.3333 20 28.3333C18.912 28.3333 17.872 28.1166 16.88 27.6833C15.9307 27.261 15.0853 26.6638 14.344 25.8916C13.6027 25.1194 13.0293 24.2388 12.624 23.2499C12.208 22.2166 12 21.1333 12 19.9999C12 18.8666 12.208 17.7833 12.624 16.7499C13.0293 15.761 13.6027 14.8805 14.344 14.1083C15.0853 13.336 15.9307 12.7388 16.88 12.3166C17.872 11.8833 18.912 11.6666 20 11.6666H20.08C19.5467 12.211 19.136 12.8333 18.848 13.5333C18.5493 14.2666 18.4 15.0333 18.4 15.8333ZM13.6 19.9999C13.6 21.211 13.8933 22.3333 14.48 23.3666C15.0453 24.3666 15.808 25.161 16.768 25.7499C17.76 26.361 18.8373 26.6666 20 26.6666C21.2053 26.6666 22.32 26.3388 23.344 25.6833C24.336 25.0499 25.104 24.1999 25.648 23.1333C25.104 23.2666 24.5547 23.3333 24 23.3333C22.6987 23.3333 21.488 22.9944 20.368 22.3166C19.28 21.6499 18.416 20.7499 17.776 19.6166C17.1253 18.4499 16.8 17.1888 16.8 15.8333C16.8 15.2555 16.864 14.6833 16.992 14.1166C15.968 14.6833 15.152 15.4833 14.544 16.5166C13.9147 17.5833 13.6 18.7444 13.6 19.9999Z" fill="#374151"/>
</svg>
