<svg width="17" height="24" viewBox="0 0 17 24" fill="none" xmlns="http://www.w3.org/2000/svg">
<path d="M8 6C9.1264 6 10.1931 6.26667 11.2 6.8C12.1643 7.31556 12.9771 8.02889 13.6384 8.94C14.2997 9.85111 14.7285 10.8711 14.9248 12C14.7285 13.1289 14.2997 14.1489 13.6384 15.06C12.9771 15.9711 12.1643 16.6844 11.2 17.2C10.1931 17.7333 9.1264 18 8 18C6.8736 18 5.80693 17.7333 4.8 17.2C3.83573 16.6844 3.02293 15.9711 2.3616 15.06C1.70026 14.1489 1.27146 13.1289 1.0752 12C1.27146 10.8711 1.70026 9.85111 2.3616 8.94C3.02293 8.02889 3.83573 7.31556 4.8 6.8C5.80693 6.26667 6.8736 6 8 6ZM8 16.6667C8.88746 16.6667 9.73226 16.4622 10.5344 16.0533C11.3109 15.6622 11.9701 15.1111 12.512 14.4C13.0539 13.6889 13.4229 12.8889 13.6192 12C13.4229 11.1111 13.0539 10.3111 12.512 9.6C11.9701 8.88889 11.3109 8.33778 10.5344 7.94667C9.73226 7.53778 8.88746 7.33333 8 7.33333C7.11253 7.33333 6.26773 7.53778 5.4656 7.94667C4.68906 8.33778 4.02986 8.88889 3.488 9.6C2.94613 10.3111 2.57706 11.1111 2.3808 12C2.57706 12.8889 2.94613 13.6889 3.488 14.4C4.02986 15.1111 4.68906 15.6622 5.4656 16.0533C6.26773 16.4622 7.11253 16.6667 8 16.6667ZM8 15C7.47946 15 6.99946 14.8644 6.56 14.5933C6.12053 14.3222 5.77066 13.9578 5.5104 13.5C5.25013 13.0422 5.12 12.5422 5.12 12C5.12 11.4578 5.25013 10.9578 5.5104 10.5C5.77066 10.0422 6.12053 9.67778 6.56 9.40667C6.99946 9.13556 7.47946 9 8 9C8.52053 9 9.00053 9.13556 9.43999 9.40667C9.87946 9.67778 10.2293 10.0422 10.4896 10.5C10.7499 10.9578 10.88 11.4578 10.88 12C10.88 12.5422 10.7499 13.0422 10.4896 13.5C10.2293 13.9578 9.87946 14.3222 9.43999 14.5933C9.00053 14.8644 8.52053 15 8 15ZM8 13.6667C8.29013 13.6667 8.5568 13.5911 8.79999 13.44C9.0432 13.2889 9.23733 13.0867 9.38239 12.8333C9.52746 12.58 9.59999 12.3022 9.59999 12C9.59999 11.6978 9.52746 11.42 9.38239 11.1667C9.23733 10.9133 9.0432 10.7111 8.79999 10.56C8.5568 10.4089 8.29013 10.3333 8 10.3333C7.70986 10.3333 7.4432 10.4089 7.2 10.56C6.9568 10.7111 6.76266 10.9133 6.6176 11.1667C6.47253 11.42 6.4 11.6978 6.4 12C6.4 12.3022 6.47253 12.58 6.6176 12.8333C6.76266 13.0867 6.9568 13.2889 7.2 13.44C7.4432 13.5911 7.70986 13.6667 8 13.6667Z" fill="#FF4353"/>
</svg>
