<svg width="40" height="40" viewBox="0 0 40 40" fill="none" xmlns="http://www.w3.org/2000/svg">
<path d="M0 12C0 5.37258 5.37258 0 12 0H28C34.6274 0 40 5.37258 40 12V28C40 34.6274 34.6274 40 28 40H12C5.37258 40 0 34.6274 0 28V12Z" fill="url(#paint0_linear_7_5027)"/>
<path d="M12.8 12.5H27.2C27.424 12.5 27.6133 12.5806 27.768 12.7417C27.9227 12.9028 28 13.1 28 13.3333V26.6667C28 26.9 27.9227 27.0972 27.768 27.2583C27.6133 27.4194 27.424 27.5 27.2 27.5H12.8C12.576 27.5 12.3867 27.4194 12.232 27.2583C12.0773 27.0972 12 26.9 12 26.6667V13.3333C12 13.1 12.0773 12.9028 12.232 12.7417C12.3867 12.5806 12.576 12.5 12.8 12.5ZM26.4 16.0333L20.064 21.95L13.6 16.0167V25.8333H26.4V16.0333ZM14.016 14.1667L20.048 19.7167L26 14.1667H14.016Z" fill="white"/>
<defs>
<linearGradient id="paint0_linear_7_5027" x1="0" y1="0" x2="40" y2="40" gradientUnits="userSpaceOnUse">
<stop stopColor="#FFD294"/>
<stop offset="1" stopColor="#FFDE9F"/>
</linearGradient>
</defs>
</svg>
