<svg width="39" height="40" viewBox="0 0 39 40" fill="none" xmlns="http://www.w3.org/2000/svg">
<path d="M0 12C0 5.37258 5.37258 0 12 0H26.1562C32.7837 0 38.1562 5.37258 38.1562 12V28C38.1562 34.6274 32.7837 40 26.1562 40H12C5.37258 40 0 34.6274 0 28V12Z" fill="white"/>
<path d="M23.7824 26.0833C23.089 26.5388 22.353 26.8888 21.5744 27.1333C20.7637 27.3777 19.9317 27.4999 19.0784 27.4999C17.6704 27.4999 16.337 27.1666 15.0784 26.4999C13.873 25.8555 12.857 24.9638 12.0304 23.8249C11.2037 22.686 10.6677 21.411 10.4224 19.9999C10.593 19.0221 10.9077 18.1027 11.3664 17.2416C11.825 16.3805 12.401 15.6166 13.0944 14.9499L10.5984 12.3333L11.7184 11.1666L27.5584 27.6666L26.4384 28.8333L23.7824 26.0833ZM14.2304 16.1166C13.6864 16.6277 13.2304 17.2138 12.8624 17.8749C12.4944 18.536 12.225 19.2444 12.0544 19.9999C12.2997 21.111 12.761 22.111 13.4384 22.9999C14.1157 23.8888 14.9397 24.5777 15.9104 25.0666C16.913 25.5777 17.969 25.8333 19.0784 25.8333C20.337 25.8333 21.5157 25.511 22.6144 24.8666L20.9984 23.1666C20.4117 23.5555 19.7717 23.7499 19.0784 23.7499C18.4277 23.7499 17.8277 23.5805 17.2784 23.2416C16.729 22.9027 16.2917 22.4471 15.9664 21.8749C15.641 21.3027 15.4784 20.6777 15.4784 19.9999C15.4784 19.2777 15.665 18.611 16.0384 17.9999L14.2304 16.1166ZM19.8144 21.9333L17.2224 19.2333C17.1264 19.4777 17.0784 19.7333 17.0784 19.9999C17.0784 20.3777 17.169 20.7249 17.3504 21.0416C17.5317 21.3583 17.7744 21.611 18.0784 21.7999C18.3824 21.9888 18.7157 22.0833 19.0784 22.0833C19.3344 22.0833 19.5797 22.0333 19.8144 21.9333ZM26.1184 23.8333L24.9824 22.6333C25.5157 21.8333 25.889 20.9555 26.1024 19.9999C25.857 18.8888 25.3957 17.8888 24.7184 16.9999C24.041 16.111 23.217 15.4221 22.2464 14.9333C21.2437 14.4221 20.1877 14.1666 19.0784 14.1666C18.4064 14.1666 17.7557 14.261 17.1264 14.4499L15.8624 13.1333C16.8864 12.711 17.9584 12.4999 19.0784 12.4999C20.4864 12.4999 21.8197 12.8333 23.0784 13.4999C24.2837 14.1444 25.2997 15.036 26.1264 16.1749C26.953 17.3138 27.489 18.5888 27.7344 19.9999C27.489 21.3999 26.9504 22.6777 26.1184 23.8333ZM18.8544 16.2499C18.929 16.2499 19.0037 16.2499 19.0784 16.2499C19.729 16.2499 20.329 16.4194 20.8784 16.7583C21.4277 17.0971 21.865 17.5527 22.1904 18.1249C22.5157 18.6971 22.6784 19.3221 22.6784 19.9999V20.2333L18.8544 16.2499Z" fill="#374151"/>
</svg>
