<svg width="40" height="40" viewBox="0 0 40 40" fill="none" xmlns="http://www.w3.org/2000/svg">
<path d="M0 12C0 5.37258 5.37258 0 12 0H28C34.6274 0 40 5.37258 40 12V28C40 34.6274 34.6274 40 28 40H12C5.37258 40 0 34.6274 0 28V12Z" fill="url(#paint0_linear_7_4672)"/>
<path d="M20.8002 10.8334V13.3834C21.7495 13.5056 22.6269 13.8334 23.4322 14.3667C24.2375 14.9001 24.8962 15.5862 25.4082 16.4251C25.9202 17.264 26.2349 18.1779 26.3522 19.1667H28.8002V20.8334H26.3522C26.2349 21.8223 25.9202 22.7362 25.4082 23.5751C24.8962 24.414 24.2375 25.1001 23.4322 25.6334C22.6269 26.1667 21.7495 26.4945 20.8002 26.6167V29.1667H19.2002V26.6167C18.2509 26.4945 17.3735 26.1667 16.5682 25.6334C15.7629 25.1001 15.1042 24.414 14.5922 23.5751C14.0802 22.7362 13.7655 21.8223 13.6482 20.8334H11.2002V19.1667H13.6482C13.7655 18.1779 14.0802 17.264 14.5922 16.4251C15.1042 15.5862 15.7629 14.9001 16.5682 14.3667C17.3735 13.8334 18.2509 13.5056 19.2002 13.3834V10.8334H20.8002ZM20.0002 15.0001C19.1362 15.0001 18.3309 15.2279 17.5842 15.6834C16.8589 16.1279 16.2829 16.7279 15.8562 17.4834C15.4189 18.2612 15.2002 19.1001 15.2002 20.0001C15.2002 20.9001 15.4189 21.739 15.8562 22.5167C16.2829 23.2723 16.8589 23.8723 17.5842 24.3167C18.3309 24.7723 19.1362 25.0001 20.0002 25.0001C20.8642 25.0001 21.6695 24.7723 22.4162 24.3167C23.1415 23.8723 23.7175 23.2723 24.1442 22.5167C24.5815 21.739 24.8002 20.9001 24.8002 20.0001C24.8002 19.1001 24.5815 18.2612 24.1442 17.4834C23.7175 16.7279 23.1415 16.1279 22.4162 15.6834C21.6695 15.2279 20.8642 15.0001 20.0002 15.0001ZM20.0002 18.3334C20.2882 18.3334 20.5549 18.4084 20.8002 18.5584C21.0455 18.7084 21.2402 18.9112 21.3842 19.1667C21.5282 19.4223 21.6002 19.7001 21.6002 20.0001C21.6002 20.3001 21.5282 20.5779 21.3842 20.8334C21.2402 21.089 21.0455 21.2917 20.8002 21.4417C20.5549 21.5917 20.2882 21.6667 20.0002 21.6667C19.7122 21.6667 19.4455 21.5917 19.2002 21.4417C18.9549 21.2917 18.7602 21.089 18.6162 20.8334C18.4722 20.5779 18.4002 20.3001 18.4002 20.0001C18.4002 19.7001 18.4722 19.4223 18.6162 19.1667C18.7602 18.9112 18.9549 18.7084 19.2002 18.5584C19.4455 18.4084 19.7122 18.3334 20.0002 18.3334Z" fill="white"/>
<defs>
<linearGradient id="paint0_linear_7_4672" x1="0" y1="0" x2="40" y2="40" gradientUnits="userSpaceOnUse">
<stop stopColor="#FF8DA1"/>
<stop offset="1" stopColor="#FFA8B7"/>
</linearGradient>
</defs>
</svg>
