<svg width="40" height="40" viewBox="0 0 40 40" fill="none" xmlns="http://www.w3.org/2000/svg">
<path d="M0 12C0 5.37258 5.37258 0 12 0H28C34.6274 0 40 5.37258 40 12V28C40 34.6274 34.6274 40 28 40H12C5.37258 40 0 34.6274 0 28V12Z" fill="url(#paint0_linear_7_5008)"/>
<path d="M13.6001 28.75C13.6001 27.5389 13.8934 26.4167 14.4801 25.3833C15.0454 24.3833 15.8081 23.5889 16.7681 23C17.7601 22.3889 18.8374 22.0833 20.0001 22.0833C21.1628 22.0833 22.2401 22.3889 23.2321 23C24.1921 23.5889 24.9548 24.3833 25.5201 25.3833C26.1068 26.4167 26.4001 27.5389 26.4001 28.75H24.8001C24.8001 27.85 24.5814 27.0111 24.1441 26.2333C23.7174 25.4778 23.1414 24.8778 22.4161 24.4333C21.6694 23.9778 20.8641 23.75 20.0001 23.75C19.1361 23.75 18.3308 23.9778 17.5841 24.4333C16.8588 24.8778 16.2828 25.4778 15.8561 26.2333C15.4188 27.0111 15.2001 27.85 15.2001 28.75H13.6001ZM20.0001 21.25C19.1254 21.25 18.3201 21.0222 17.5841 20.5667C16.8588 20.1222 16.2828 19.5222 15.8561 18.7667C15.4188 18 15.2001 17.1611 15.2001 16.25C15.2001 15.3389 15.4188 14.5 15.8561 13.7333C16.2828 12.9778 16.8588 12.3778 17.5841 11.9333C18.3201 11.4778 19.1254 11.25 20.0001 11.25C20.8748 11.25 21.6801 11.4778 22.4161 11.9333C23.1414 12.3778 23.7174 12.9778 24.1441 13.7333C24.5814 14.5 24.8001 15.3389 24.8001 16.25C24.8001 17.1611 24.5814 18 24.1441 18.7667C23.7174 19.5222 23.1414 20.1222 22.4161 20.5667C21.6801 21.0222 20.8748 21.25 20.0001 21.25ZM20.0001 19.5833C20.5761 19.5833 21.1094 19.4333 21.6001 19.1333C22.0908 18.8333 22.4801 18.4278 22.7681 17.9167C23.0561 17.4056 23.2001 16.85 23.2001 16.25C23.2001 15.65 23.0561 15.0944 22.7681 14.5833C22.4801 14.0722 22.0908 13.6667 21.6001 13.3667C21.1094 13.0667 20.5761 12.9167 20.0001 12.9167C19.4241 12.9167 18.8908 13.0667 18.4001 13.3667C17.9094 13.6667 17.5201 14.0722 17.2321 14.5833C16.9441 15.0944 16.8001 15.65 16.8001 16.25C16.8001 16.85 16.9441 17.4056 17.2321 17.9167C17.5201 18.4278 17.9094 18.8333 18.4001 19.1333C18.8908 19.4333 19.4241 19.5833 20.0001 19.5833Z" fill="white"/>
<defs>
<linearGradient id="paint0_linear_7_5008" x1="0" y1="0" x2="40" y2="40" gradientUnits="userSpaceOnUse">
<stop stopColor="#FF4353"/>
<stop offset="1" stopColor="#FF6B78"/>
</linearGradient>
</defs>
</svg>
