<svg width="48" height="48" viewBox="0 0 48 48" fill="none" xmlns="http://www.w3.org/2000/svg">
<path d="M8.64014 45C8.64014 42.0933 9.34414 39.4 10.7521 36.92C12.1089 34.52 13.9393 32.6133 16.2433 31.2C18.6241 29.7333 21.2097 29 24.0001 29C26.7905 29 29.3761 29.7333 31.7569 31.2C34.0609 32.6133 35.8913 34.52 37.2481 36.92C38.6561 39.4 39.3601 42.0933 39.3601 45H35.5201C35.5201 42.84 34.9953 40.8267 33.9457 38.96C32.9217 37.1467 31.5393 35.7067 29.7985 34.64C28.0065 33.5467 26.0737 33 24.0001 33C21.9265 33 19.9937 33.5467 18.2017 34.64C16.4609 35.7067 15.0785 37.1467 14.0545 38.96C13.0049 40.8267 12.4801 42.84 12.4801 45H8.64014ZM24.0001 27C21.9009 27 19.9681 26.4533 18.2017 25.36C16.4609 24.2933 15.0785 22.8533 14.0545 21.04C13.0049 19.2 12.4801 17.1867 12.4801 15C12.4801 12.8133 13.0049 10.8 14.0545 8.96C15.0785 7.14667 16.4609 5.70667 18.2017 4.64C19.9681 3.54667 21.9009 3 24.0001 3C26.0993 3 28.0321 3.54667 29.7985 4.64C31.5393 5.70667 32.9217 7.14667 33.9457 8.96C34.9953 10.8 35.5201 12.8133 35.5201 15C35.5201 17.1867 34.9953 19.2 33.9457 21.04C32.9217 22.8533 31.5393 24.2933 29.7985 25.36C28.0321 26.4533 26.0993 27 24.0001 27ZM24.0001 23C25.3825 23 26.6625 22.64 27.8401 21.92C29.0177 21.2 29.9521 20.2267 30.6433 19C31.3345 17.7733 31.6801 16.44 31.6801 15C31.6801 13.56 31.3345 12.2267 30.6433 11C29.9521 9.77333 29.0177 8.8 27.8401 8.08C26.6625 7.36 25.3825 7 24.0001 7C22.6177 7 21.3377 7.36 20.1601 8.08C18.9825 8.8 18.0481 9.77333 17.3569 11C16.6657 12.2267 16.3201 13.56 16.3201 15C16.3201 16.44 16.6657 17.7733 17.3569 19C18.0481 20.2267 18.9825 21.2 20.1601 21.92C21.3377 22.64 22.6177 23 24.0001 23Z" fill="white"/>
</svg>
