<svg width="120" height="120" viewBox="0 0 120 120" fill="none" xmlns="http://www.w3.org/2000/svg">
  <circle cx="60" cy="60" r="56" fill="#fff5f5" stroke="#fca5a5" stroke-width="3"/>
  <circle cx="60" cy="58" r="30" fill="#ff4353" opacity="0.12"/>
  <path d="M43 50 Q48 46 53 50" stroke="#ff4353" stroke-width="3" stroke-linecap="round" fill="none"/>
  <path d="M43 53 Q48 57 53 53" stroke="#ff4353" stroke-width="2" stroke-linecap="round" fill="none" opacity="0.5"/>
  <path d="M67 50 Q72 46 77 50" stroke="#ff4353" stroke-width="3" stroke-linecap="round" fill="none"/>
  <path d="M67 53 Q72 57 77 53" stroke="#ff4353" stroke-width="2" stroke-linecap="round" fill="none" opacity="0.5"/>
  <path d="M46 72 Q60 62 74 72" stroke="#ff4353" stroke-width="3.5" stroke-linecap="round" fill="none"/>
  <path d="M18 38 L26 44" stroke="#ff4353" stroke-width="2.5" stroke-linecap="round" opacity="0.6"/>
  <path d="M16 50 L25 50" stroke="#ff4353" stroke-width="2.5" stroke-linecap="round" opacity="0.6"/>
  <path d="M18 62 L26 56" stroke="#ff4353" stroke-width="2.5" stroke-linecap="round" opacity="0.6"/>
  <path d="M102 38 L94 44" stroke="#ff4353" stroke-width="2.5" stroke-linecap="round" opacity="0.6"/>
  <path d="M104 50 L95 50" stroke="#ff4353" stroke-width="2.5" stroke-linecap="round" opacity="0.6"/>
  <path d="M102 62 L94 56" stroke="#ff4353" stroke-width="2.5" stroke-linecap="round" opacity="0.6"/>
  <path d="M50 22 Q52 17 54 22 Q56 27 58 22" stroke="#ff4353" stroke-width="2" stroke-linecap="round" fill="none" opacity="0.5"/>
  <path d="M62 22 Q64 17 66 22 Q68 27 70 22" stroke="#ff4353" stroke-width="2" stroke-linecap="round" fill="none" opacity="0.5"/>
</svg>