<svg width="40" height="40" viewBox="0 0 40 40" fill="none" xmlns="http://www.w3.org/2000/svg">
<path d="M0 12C0 5.37258 5.37258 0 12 0H28C34.6274 0 40 5.37258 40 12V28C40 34.6274 34.6274 40 28 40H12C5.37258 40 0 34.6274 0 28V12Z" fill="url(#paint0_linear_7_5084)"/>
<path d="M19.9998 26.6998L23.9518 22.5665C24.6771 21.822 25.1678 20.9442 25.4238 19.9331C25.6691 18.9442 25.6691 17.9554 25.4238 16.9665C25.1678 15.9554 24.6798 15.0748 23.9598 14.3248C23.2398 13.5748 22.3945 13.0665 21.4238 12.7998C20.4745 12.5442 19.5251 12.5442 18.5758 12.7998C17.6051 13.0665 16.7598 13.5748 16.0398 14.3248C15.3198 15.0748 14.8318 15.9554 14.5758 16.9665C14.3305 17.9554 14.3305 18.9442 14.5758 19.9331C14.8318 20.9442 15.3225 21.822 16.0478 22.5665L19.9998 26.6998ZM19.9998 29.0498L14.9118 23.7498C13.9838 22.7942 13.3598 21.6609 13.0398 20.3498C12.7198 19.0831 12.7198 17.8165 13.0398 16.5498C13.3598 15.2387 13.9811 14.1026 14.9038 13.1415C15.8265 12.1804 16.9171 11.5276 18.1758 11.1831C19.3918 10.8609 20.6078 10.8609 21.8238 11.1831C23.0825 11.5276 24.1731 12.1804 25.0958 13.1415C26.0185 14.1026 26.6398 15.2387 26.9598 16.5498C27.2798 17.8165 27.2798 19.0831 26.9598 20.3498C26.6398 21.6609 26.0158 22.7942 25.0878 23.7498L19.9998 29.0498ZM19.9998 20.1165C20.2878 20.1165 20.5545 20.0415 20.7998 19.8915C21.0451 19.7415 21.2398 19.5387 21.3838 19.2831C21.5278 19.0276 21.5998 18.7498 21.5998 18.4498C21.5998 18.1498 21.5278 17.872 21.3838 17.6165C21.2398 17.3609 21.0451 17.1581 20.7998 17.0081C20.5545 16.8581 20.2878 16.7831 19.9998 16.7831C19.7118 16.7831 19.4451 16.8581 19.1998 17.0081C18.9545 17.1581 18.7598 17.3609 18.6158 17.6165C18.4718 17.872 18.3998 18.1498 18.3998 18.4498C18.3998 18.7498 18.4718 19.0276 18.6158 19.2831C18.7598 19.5387 18.9545 19.7415 19.1998 19.8915C19.4451 20.0415 19.7118 20.1165 19.9998 20.1165ZM19.9998 21.7831C19.4238 21.7831 18.8905 21.6331 18.3998 21.3331C17.9091 21.0331 17.5198 20.6276 17.2318 20.1165C16.9438 19.6054 16.7998 19.047 16.7998 18.4415C16.7998 17.8359 16.9438 17.2804 17.2318 16.7748C17.5198 16.2692 17.9091 15.8665 18.3998 15.5665C18.8905 15.2665 19.4238 15.1165 19.9998 15.1165C20.5758 15.1165 21.1091 15.2665 21.5998 15.5665C22.0905 15.8665 22.4798 16.2692 22.7678 16.7748C23.0558 17.2804 23.1998 17.8359 23.1998 18.4415C23.1998 19.047 23.0558 19.6054 22.7678 20.1165C22.4798 20.6276 22.0905 21.0331 21.5998 21.3331C21.1091 21.6331 20.5758 21.7831 19.9998 21.7831Z" fill="white"/>
<defs>
<linearGradient id="paint0_linear_7_5084" x1="0" y1="0" x2="40" y2="40" gradientUnits="userSpaceOnUse">
<stop stopColor="#FFD294"/>
<stop offset="1" stopColor="#FFDE9F"/>
</linearGradient>
</defs>
</svg>
