<svg width="21" height="28" viewBox="0 0 21 28" fill="none" xmlns="http://www.w3.org/2000/svg">
<path d="M4.7999 19.0002H6.3999V20.6668H15.9999V7.3335H6.3999V9.00016H4.7999V6.50016C4.7999 6.26683 4.87724 6.06961 5.0319 5.9085C5.18657 5.74739 5.3759 5.66683 5.5999 5.66683H16.7999C17.0239 5.66683 17.2132 5.74739 17.3679 5.9085C17.5226 6.06961 17.5999 6.26683 17.5999 6.50016V21.5002C17.5999 21.7335 17.5226 21.9307 17.3679 22.0918C17.2132 22.2529 17.0239 22.3335 16.7999 22.3335H5.5999C5.3759 22.3335 5.18657 22.2529 5.0319 22.0918C4.87724 21.9307 4.7999 21.7335 4.7999 21.5002V19.0002ZM6.3999 13.1668H11.9999V14.8335H6.3999V17.3335L2.3999 14.0002L6.3999 10.6668V13.1668Z" fill="#DC2626"/>
</svg>
