<svg width="40" height="40" viewBox="0 0 40 40" fill="none" xmlns="http://www.w3.org/2000/svg">
<path d="M0 12C0 5.37258 5.37258 0 12 0H28C34.6274 0 40 5.37258 40 12V28C40 34.6274 34.6274 40 28 40H12C5.37258 40 0 34.6274 0 28V12Z" fill="white"/>
<path d="M26.4 23.75H28V25.4167H12V23.75H13.6V17.9167C13.6 16.7056 13.8933 15.5833 14.48 14.55C15.0453 13.55 15.808 12.7556 16.768 12.1667C17.76 11.5556 18.8373 11.25 20 11.25C21.1627 11.25 22.24 11.5556 23.232 12.1667C24.192 12.7556 24.9547 13.55 25.52 14.55C26.1067 15.5833 26.4 16.7056 26.4 17.9167V23.75ZM24.8 23.75V17.9167C24.8 17.0167 24.5813 16.1778 24.144 15.4C23.7173 14.6444 23.1413 14.0444 22.416 13.6C21.6693 13.1444 20.864 12.9167 20 12.9167C19.136 12.9167 18.3307 13.1444 17.584 13.6C16.8587 14.0444 16.2827 14.6444 15.856 15.4C15.4187 16.1778 15.2 17.0167 15.2 17.9167V23.75H24.8ZM17.6 27.0833H22.4V28.75H17.6V27.0833Z" fill="#374151"/>
</svg>
