<svg width="25" height="32" viewBox="0 0 25 32" fill="none" xmlns="http://www.w3.org/2000/svg">
<path d="M4.31982 26.5C4.31982 25.0467 4.67182 23.7 5.37582 22.46C6.05422 21.26 6.96942 20.3067 8.12142 19.6C9.31182 18.8667 10.6046 18.5 11.9998 18.5C13.395 18.5 14.6878 18.8667 15.8782 19.6C17.0302 20.3067 17.9454 21.26 18.6238 22.46C19.3278 23.7 19.6798 25.0467 19.6798 26.5H17.7598C17.7598 25.42 17.4974 24.4133 16.9726 23.48C16.4606 22.5733 15.7694 21.8533 14.899 21.32C14.003 20.7733 13.0366 20.5 11.9998 20.5C10.963 20.5 9.99662 20.7733 9.10062 21.32C8.23022 21.8533 7.53902 22.5733 7.02702 23.48C6.50222 24.4133 6.23982 25.42 6.23982 26.5H4.31982ZM11.9998 17.5C10.9502 17.5 9.98382 17.2267 9.10062 16.68C8.23022 16.1467 7.53902 15.4267 7.02702 14.52C6.50222 13.6 6.23982 12.5933 6.23982 11.5C6.23982 10.4067 6.50222 9.4 7.02702 8.48C7.53902 7.57333 8.23022 6.85333 9.10062 6.32C9.98382 5.77333 10.9502 5.5 11.9998 5.5C13.0494 5.5 14.0158 5.77333 14.899 6.32C15.7694 6.85333 16.4606 7.57333 16.9726 8.48C17.4974 9.4 17.7598 10.4067 17.7598 11.5C17.7598 12.5933 17.4974 13.6 16.9726 14.52C16.4606 15.4267 15.7694 16.1467 14.899 16.68C14.0158 17.2267 13.0494 17.5 11.9998 17.5ZM11.9998 15.5C12.691 15.5 13.331 15.32 13.9198 14.96C14.5086 14.6 14.9758 14.1133 15.3214 13.5C15.667 12.8867 15.8398 12.22 15.8398 11.5C15.8398 10.78 15.667 10.1133 15.3214 9.5C14.9758 8.88667 14.5086 8.4 13.9198 8.04C13.331 7.68 12.691 7.5 11.9998 7.5C11.3086 7.5 10.6686 7.68 10.0798 8.04C9.49102 8.4 9.02382 8.88667 8.67822 9.5C8.33262 10.1133 8.15982 10.78 8.15982 11.5C8.15982 12.22 8.33262 12.8867 8.67822 13.5C9.02382 14.1133 9.49102 14.6 10.0798 14.96C10.6686 15.32 11.3086 15.5 11.9998 15.5Z" fill="currentColor"/>
</svg>
