<svg width="40" height="40" viewBox="0 0 40 40" fill="none" xmlns="http://www.w3.org/2000/svg">
<path d="M0 12C0 5.37258 5.37258 0 12 0H28C34.6274 0 40 5.37258 40 12V28C40 34.6274 34.6274 40 28 40H12C5.37258 40 0 34.6274 0 28V12Z" fill="url(#paint0_linear_7_5046)"/>
<path d="M17.8878 18.9C18.2611 19.5889 18.7171 20.2139 19.2558 20.775C19.7945 21.3361 20.3945 21.8111 21.0558 22.2L21.7598 21.1667C21.8771 20.9889 22.0345 20.8778 22.2318 20.8333C22.4291 20.7889 22.6185 20.8167 22.7998 20.9167C23.9411 21.5722 25.1625 21.95 26.4638 22.05C26.6665 22.0722 26.8398 22.1611 26.9838 22.3167C27.1278 22.4722 27.1998 22.6611 27.1998 22.8833V26.6C27.1998 26.8111 27.1305 26.9972 26.9918 27.1583C26.8531 27.3194 26.6825 27.4111 26.4798 27.4333C26.0531 27.4778 25.6265 27.5 25.1998 27.5C23.5145 27.5 21.9038 27.1611 20.3678 26.4833C18.8851 25.8278 17.5731 24.9056 16.4318 23.7167C15.2905 22.5278 14.4051 21.1611 13.7758 19.6167C13.1251 18.0167 12.7998 16.3389 12.7998 14.5833C12.7998 14.1389 12.8211 13.6944 12.8638 13.25C12.8851 13.0389 12.9731 12.8611 13.1278 12.7167C13.2825 12.5722 13.4611 12.5 13.6638 12.5H17.2318C17.4451 12.5 17.6265 12.575 17.7758 12.725C17.9251 12.875 18.0105 13.0556 18.0318 13.2667C18.1278 14.6222 18.4905 15.8944 19.1198 17.0833C19.2158 17.2722 19.2425 17.4694 19.1998 17.675C19.1571 17.8806 19.0505 18.0444 18.8798 18.1667L17.8878 18.9ZM15.8718 18.35L17.3918 17.2167C16.9651 16.25 16.6718 15.2333 16.5118 14.1667H14.3998V14.5833C14.3998 16.1056 14.6825 17.5667 15.2478 18.9667C15.7918 20.3111 16.5625 21.5028 17.5598 22.5417C18.5571 23.5806 19.7011 24.3833 20.9918 24.95C22.3358 25.5389 23.7385 25.8333 25.1998 25.8333H25.5998V23.6333C24.5758 23.4667 23.5998 23.1611 22.6718 22.7167L21.5838 24.3C21.1465 24.1222 20.7198 23.9111 20.3038 23.6667L20.2558 23.65C19.4771 23.1833 18.7678 22.6167 18.1278 21.95C17.4878 21.2833 16.9438 20.5444 16.4958 19.7333L16.4798 19.6833C16.2451 19.25 16.0425 18.8056 15.8718 18.35Z" fill="white"/>
<defs>
<linearGradient id="paint0_linear_7_5046" x1="0" y1="0" x2="40" y2="40" gradientUnits="userSpaceOnUse">
<stop stopColor="#FF8DA1"/>
<stop offset="1" stopColor="#FFA8B7"/>
</linearGradient>
</defs>
</svg>
