<svg width="56" height="56" viewBox="0 0 56 56" fill="none" xmlns="http://www.w3.org/2000/svg">
<g filter="url(#filter0_dd_7_4995)">
<path d="M12 18C12 9.16344 19.1634 2 28 2C36.8366 2 44 9.16344 44 18C44 26.8366 36.8366 34 28 34C19.1634 34 12 26.8366 12 18Z" fill="white"/>
<path d="M28 3C36.2843 3 43 9.71573 43 18C43 26.2843 36.2843 33 28 33C19.7157 33 13 26.2843 13 18C13 9.71573 19.7157 3 28 3Z" stroke="#FF4353" strokeWidth="2"/>
<path d="M26.4964 13.9167L25.3751 15.0833H23.2336V22.0833H32.2036V15.0833H30.062L28.9407 13.9167H26.4964ZM26.0367 12.75H29.4004L30.5217 13.9167H32.7642C32.9212 13.9167 33.0538 13.9731 33.1622 14.0858C33.2706 14.1986 33.3248 14.3367 33.3248 14.5V22.6667C33.3248 22.83 33.2706 22.9681 33.1622 23.0808C33.0538 23.1936 32.9212 23.25 32.7642 23.25H22.6729C22.516 23.25 22.3833 23.1936 22.2749 23.0808C22.1665 22.9681 22.1123 22.83 22.1123 22.6667V14.5C22.1123 14.3367 22.1665 14.1986 22.2749 14.0858C22.3833 13.9731 22.516 13.9167 22.6729 13.9167H24.9154L26.0367 12.75ZM27.7186 21.5C27.1579 21.5 26.6422 21.3561 26.1712 21.0683C25.7003 20.7806 25.3266 20.3917 25.05 19.9017C24.7734 19.4117 24.6351 18.875 24.6351 18.2917C24.6351 17.7083 24.7734 17.1717 25.05 16.6817C25.3266 16.1917 25.7003 15.8028 26.1712 15.515C26.6422 15.2272 27.1579 15.0833 27.7186 15.0833C28.2792 15.0833 28.795 15.2272 29.2659 15.515C29.7368 15.8028 30.1106 16.1917 30.3871 16.6817C30.6637 17.1717 30.802 17.7083 30.802 18.2917C30.802 18.875 30.6637 19.4117 30.3871 19.9017C30.1106 20.3917 29.7368 20.7806 29.2659 21.0683C28.795 21.3561 28.2792 21.5 27.7186 21.5ZM27.7186 20.3333C28.0774 20.3333 28.4063 20.2419 28.7053 20.0592C29.0043 19.8764 29.2416 19.6294 29.4172 19.3183C29.5929 19.0072 29.6807 18.665 29.6807 18.2917C29.6807 17.9183 29.5929 17.5761 29.4172 17.265C29.2416 16.9539 29.0043 16.7069 28.7053 16.5242C28.4063 16.3414 28.0774 16.25 27.7186 16.25C27.3598 16.25 27.0309 16.3414 26.7319 16.5242C26.4329 16.7069 26.1955 16.9539 26.0199 17.265C25.8442 17.5761 25.7564 17.9183 25.7564 18.2917C25.7564 18.665 25.8442 19.0072 26.0199 19.3183C26.1955 19.6294 26.4329 19.8764 26.7319 20.0592C27.0309 20.2419 27.3598 20.3333 27.7186 20.3333Z" fill="#FF4353"/>
</g>
<defs>
<filter id="filter0_dd_7_4995" x="0" y="0" width="56" height="56" filterUnits="userSpaceOnUse" colorInterpolationFilters="sRGB">
<feFlood floodOpacity="0" result="BackgroundImageFix"/>
<feColorMatrix in="SourceAlpha" type="matrix" values="0 0 0 0 0 0 0 0 0 0 0 0 0 0 0 0 0 0 127 0" result="hardAlpha"/>
<feMorphology radius="3" operator="erode" in="SourceAlpha" result="effect1_dropShadow_7_4995"/>
<feOffset dy="10"/>
<feGaussianBlur stdDeviation="7.5"/>
<feComposite in2="hardAlpha" operator="out"/>
<feColorMatrix type="matrix" values="0 0 0 0 0 0 0 0 0 0 0 0 0 0 0 0 0 0 0.1 0"/>
<feBlend mode="normal" in2="BackgroundImageFix" result="effect1_dropShadow_7_4995"/>
<feColorMatrix in="SourceAlpha" type="matrix" values="0 0 0 0 0 0 0 0 0 0 0 0 0 0 0 0 0 0 127 0" result="hardAlpha"/>
<feMorphology radius="4" operator="erode" in="SourceAlpha" result="effect2_dropShadow_7_4995"/>
<feOffset dy="4"/>
<feGaussianBlur stdDeviation="3"/>
<feComposite in2="hardAlpha" operator="out"/>
<feColorMatrix type="matrix" values="0 0 0 0 0 0 0 0 0 0 0 0 0 0 0 0 0 0 0.1 0"/>
<feBlend mode="normal" in2="effect1_dropShadow_7_4995" result="effect2_dropShadow_7_4995"/>
<feBlend mode="normal" in="SourceGraphic" in2="effect2_dropShadow_7_4995" result="shape"/>
</filter>
</defs>
</svg>
