<svg width="40" height="40" viewBox="0 0 40 40" fill="none" xmlns="http://www.w3.org/2000/svg">
<path d="M0 12C0 5.37258 5.37258 0 12 0H28C34.6274 0 40 5.37258 40 12V28C40 34.6274 34.6274 40 28 40H12C5.37258 40 0 34.6274 0 28V12Z" fill="url(#paint0_linear_7_4573)"/>
<path d="M13.0721 24.1666C12.7308 23.5554 12.4694 22.911 12.2881 22.2332C12.6828 22.0221 13.0001 21.7166 13.2401 21.3166C13.4801 20.9166 13.6001 20.4777 13.6001 19.9999C13.6001 19.5221 13.4801 19.0832 13.2401 18.6832C13.0001 18.2832 12.6828 17.9777 12.2881 17.7666C12.6614 16.3777 13.3281 15.1721 14.2881 14.1499C14.6614 14.4054 15.0748 14.5416 15.5281 14.5582C15.9814 14.5749 16.4054 14.4638 16.8001 14.2249C17.1948 13.986 17.4988 13.6582 17.7121 13.2416C17.9254 12.8249 18.0214 12.3888 18.0001 11.9332C19.3334 11.5666 20.6668 11.5666 22.0001 11.9332C21.9788 12.3888 22.0748 12.8249 22.2881 13.2416C22.5014 13.6582 22.8054 13.986 23.2001 14.2249C23.5948 14.4638 24.0188 14.5749 24.4721 14.5582C24.9254 14.5416 25.3388 14.4054 25.7121 14.1499C26.1814 14.661 26.5868 15.2221 26.9281 15.8332C27.2694 16.4443 27.5308 17.0888 27.7121 17.7666C27.3174 17.9777 27.0001 18.2832 26.7601 18.6832C26.5201 19.0832 26.4001 19.5221 26.4001 19.9999C26.4001 20.4777 26.5201 20.9166 26.7601 21.3166C27.0001 21.7166 27.3174 22.0221 27.7121 22.2332C27.3388 23.6221 26.6721 24.8277 25.7121 25.8499C25.3388 25.5943 24.9254 25.4582 24.4721 25.4416C24.0188 25.4249 23.5948 25.536 23.2001 25.7749C22.8054 26.0138 22.5014 26.3416 22.2881 26.7582C22.0748 27.1749 21.9788 27.611 22.0001 28.0666C20.6668 28.4332 19.3334 28.4332 18.0001 28.0666C18.0214 27.611 17.9254 27.1749 17.7121 26.7582C17.4988 26.3416 17.1948 26.0138 16.8001 25.7749C16.4054 25.536 15.9814 25.4249 15.5281 25.4416C15.0748 25.4582 14.6614 25.5943 14.2881 25.8499C13.8188 25.3388 13.4134 24.7777 13.0721 24.1666ZM17.6001 24.3332C18.0268 24.5888 18.3948 24.9166 18.7041 25.3166C19.0134 25.7166 19.2481 26.1554 19.4081 26.6332C19.8028 26.6777 20.1974 26.6777 20.5921 26.6332C20.7521 26.1554 20.9841 25.7166 21.2881 25.3166C21.5921 24.9166 21.9601 24.586 22.3921 24.3249C22.8241 24.0638 23.2854 23.8943 23.7761 23.8166C24.2668 23.7388 24.7468 23.7554 25.2161 23.8666C25.4508 23.5221 25.6534 23.161 25.8241 22.7832C25.4934 22.4054 25.2401 21.9777 25.0641 21.4999C24.8881 21.0221 24.8001 20.5221 24.8001 19.9999C24.8001 19.4777 24.8881 18.9777 25.0641 18.4999C25.2401 18.0221 25.4934 17.5943 25.8241 17.2166C25.7388 17.0277 25.6454 16.8443 25.5441 16.6666C25.4428 16.4888 25.3334 16.311 25.2161 16.1332C24.7468 16.2443 24.2668 16.261 23.7761 16.1832C23.2854 16.1054 22.8268 15.936 22.4001 15.6749C21.9734 15.4138 21.6054 15.0832 21.2961 14.6832C20.9868 14.2832 20.7521 13.8443 20.5921 13.3666C20.1974 13.3221 19.8028 13.3221 19.4081 13.3666C19.2481 13.8443 19.0161 14.2832 18.7121 14.6832C18.4081 15.0832 18.0374 15.4138 17.6001 15.6749C17.1628 15.936 16.7014 16.1054 16.2161 16.1832C15.7308 16.261 15.2534 16.2443 14.7841 16.1332C14.5494 16.4777 14.3468 16.8388 14.1761 17.2166C14.5068 17.5943 14.7601 18.0221 14.9361 18.4999C15.1121 18.9777 15.2001 19.4777 15.2001 19.9999C15.2001 20.5221 15.1121 21.0221 14.9361 21.4999C14.7601 21.9777 14.5068 22.4054 14.1761 22.7832C14.2614 22.9721 14.3548 23.1554 14.4561 23.3332C14.5574 23.511 14.6668 23.6888 14.7841 23.8666C15.2534 23.7554 15.7334 23.7388 16.2241 23.8166C16.7148 23.8943 17.1734 24.0666 17.6001 24.3332ZM20.0001 22.4999C19.5628 22.4999 19.1601 22.3888 18.7921 22.1666C18.4241 21.9443 18.1334 21.6416 17.9201 21.2582C17.7068 20.8749 17.6001 20.4554 17.6001 19.9999C17.6001 19.5443 17.7068 19.1249 17.9201 18.7416C18.1334 18.3582 18.4241 18.0554 18.7921 17.8332C19.1601 17.611 19.5628 17.4999 20.0001 17.4999C20.4374 17.4999 20.8401 17.611 21.2081 17.8332C21.5761 18.0554 21.8668 18.3582 22.0801 18.7416C22.2934 19.1249 22.4001 19.5443 22.4001 19.9999C22.4001 20.4554 22.2934 20.8749 22.0801 21.2582C21.8668 21.6416 21.5761 21.9443 21.2081 22.1666C20.8401 22.3888 20.4374 22.4999 20.0001 22.4999ZM20.0001 20.8332C20.2241 20.8332 20.4134 20.7527 20.5681 20.5916C20.7228 20.4304 20.8001 20.2332 20.8001 19.9999C20.8001 19.7666 20.7228 19.5693 20.5681 19.4082C20.4134 19.2471 20.2241 19.1666 20.0001 19.1666C19.7761 19.1666 19.5868 19.2471 19.4321 19.4082C19.2774 19.5693 19.2001 19.7666 19.2001 19.9999C19.2001 20.2332 19.2774 20.4304 19.4321 20.5916C19.5868 20.7527 19.7761 20.8332 20.0001 20.8332Z" fill="white"/>
<defs>
<linearGradient id="paint0_linear_7_4573" x1="0" y1="0" x2="40" y2="40" gradientUnits="userSpaceOnUse">
<stop stopColor="#FF4353"/>
<stop offset="1" stopColor="#FF6B78"/>
</linearGradient>
</defs>
</svg>
