<svg width="32" height="32" viewBox="0 0 32 32" fill="none" xmlns="http://www.w3.org/2000/svg">
<path d="M0 8C0 3.58172 3.58172 0 8 0H24C28.4183 0 32 3.58172 32 8V24C32 28.4183 28.4183 32 24 32H8C3.58172 32 0 28.4183 0 24V8Z" fill="#FF4353"/>
<path d="M13.4402 10.6666H21.7602V12H13.4402V10.6666ZM10.2402 10.3333H12.1602V12.3333H10.2402V10.3333ZM10.2402 15H12.1602V17H10.2402V15ZM10.2402 19.6666H12.1602V21.6666H10.2402V19.6666ZM13.4402 15.3333H21.7602V16.6666H13.4402V15.3333ZM13.4402 20H21.7602V21.3333H13.4402V20Z" fill="white"/>
</svg>
