<svg width="40" height="40" viewBox="0 0 40 40" fill="none" xmlns="http://www.w3.org/2000/svg">
<path d="M0 12C0 5.37258 5.37258 0 12 0H28C34.6274 0 40 5.37258 40 12V28C40 34.6274 34.6274 40 28 40H12C5.37258 40 0 34.6274 0 28V12Z" fill="url(#paint0_linear_7_5123)"/>
<path d="M13.4238 12.3498L19.9998 10.8332L26.5758 12.3498C26.7571 12.3943 26.9065 12.4943 27.0238 12.6498C27.1411 12.8054 27.1998 12.9776 27.1998 13.1665V21.4832C27.1998 22.3276 27.0105 23.1165 26.6318 23.8498C26.2531 24.5832 25.7278 25.1832 25.0558 25.6498L19.9998 29.1665L14.9438 25.6498C14.2718 25.1832 13.7465 24.5832 13.3678 23.8498C12.9891 23.1165 12.7998 22.3276 12.7998 21.4832V13.1665C12.7998 12.9776 12.8585 12.8054 12.9758 12.6498C13.0931 12.4943 13.2425 12.3943 13.4238 12.3498ZM14.3998 13.8332V21.4832C14.3998 22.0498 14.5251 22.5776 14.7758 23.0665C15.0265 23.5554 15.3758 23.9554 15.8238 24.2665L19.9998 27.1665L24.1758 24.2665C24.6238 23.9554 24.9731 23.5554 25.2238 23.0665C25.4745 22.5776 25.5998 22.0498 25.5998 21.4832V13.8332L19.9998 12.5332L14.3998 13.8332Z" fill="white"/>
<defs>
<linearGradient id="paint0_linear_7_5123" x1="0" y1="0" x2="40" y2="40" gradientUnits="userSpaceOnUse">
<stop stopColor="#FF4353"/>
<stop offset="1" stopColor="#FF6B78"/>
</linearGradient>
</defs>
</svg>
