<svg width="40" height="40" viewBox="0 0 40 40" fill="none" xmlns="http://www.w3.org/2000/svg">
<path d="M0 12C0 5.37258 5.37258 0 12 0H28C34.6274 0 40 5.37258 40 12V28C40 34.6274 34.6274 40 28 40H12C5.37258 40 0 34.6274 0 28V12Z" fill="url(#paint0_linear_7_4793)"/>
<path d="M19.2 19.1668V14.8502L17.744 16.3835L16.608 15.2002L20 11.6668L23.392 15.2002L22.256 16.3835L20.8 14.8502V19.1668H24.944L23.472 17.6502L24.608 16.4668L28 20.0002L24.608 23.5335L23.472 22.3502L24.944 20.8335H20.8V25.1502L22.256 23.6168L23.392 24.8002L20 28.3335L16.608 24.8002L17.744 23.6168L19.2 25.1502V20.8335H15.056L16.528 22.3502L15.392 23.5335L12 20.0002L15.392 16.4668L16.528 17.6502L15.056 19.1668H19.2Z" fill="white"/>
<defs>
<linearGradient id="paint0_linear_7_4793" x1="0" y1="0" x2="40" y2="40" gradientUnits="userSpaceOnUse">
<stop stopColor="#FF8DA1"/>
<stop offset="1" stopColor="#FFA8B7"/>
</linearGradient>
</defs>
</svg>
