<svg width="25" height="32" viewBox="0 0 25 32" fill="none" xmlns="http://www.w3.org/2000/svg">
<path d="M18.7199 8H5.27986V24H18.7199V8ZM3.35986 7C3.35986 6.72 3.45266 6.48333 3.63826 6.29C3.82386 6.09667 4.05106 6 4.31986 6H19.6799C19.9487 6 20.1759 6.09667 20.3615 6.29C20.5471 6.48333 20.6399 6.72 20.6399 7V25C20.6399 25.2667 20.5471 25.5 20.3615 25.7C20.1759 25.9 19.9487 26 19.6799 26H4.31986C4.05106 26 3.82386 25.9033 3.63826 25.71C3.45266 25.5167 3.35986 25.28 3.35986 25V7ZM11.3279 17.12L15.3983 12.88L16.7423 14.3L11.3279 19.94L7.58386 16.06L8.94706 14.64L11.3279 17.12Z" fill="currentColor"/>
</svg>
