<svg width="25" height="32" viewBox="0 0 25 32" fill="none" xmlns="http://www.w3.org/2000/svg">
<path d="M8.15979 9C8.15979 8.28 8.33259 7.61333 8.67818 7C9.02378 6.38667 9.49098 5.9 10.0798 5.54C10.6686 5.18 11.3086 5 11.9998 5C12.691 5 13.331 5.18 13.9198 5.54C14.5086 5.9 14.9758 6.38667 15.3214 7C15.667 7.61333 15.8398 8.28 15.8398 9V14.26C16.723 14.9 17.4206 15.7133 17.9326 16.7C18.4574 17.7267 18.7198 18.8267 18.7198 20C18.7198 21.2667 18.4126 22.4467 17.7982 23.54C17.2094 24.5933 16.4094 25.4267 15.3982 26.04C14.3486 26.68 13.2158 27 11.9998 27C10.7838 27 9.65098 26.68 8.60138 26.04C7.59018 25.4267 6.79019 24.5933 6.20139 23.54C5.58699 22.4467 5.27979 21.2667 5.27979 20C5.27979 18.8267 5.54219 17.7267 6.06699 16.7C6.57899 15.7133 7.27659 14.9 8.15979 14.26V9ZM9.25418 15.9C8.61419 16.3667 8.11178 16.96 7.74698 17.68C7.38218 18.4 7.19979 19.1733 7.19979 20C7.19979 20.9067 7.41419 21.7433 7.84298 22.51C8.27179 23.2767 8.85419 23.8833 9.59019 24.33C10.3262 24.7767 11.1294 25 11.9998 25C12.8702 25 13.6734 24.7767 14.4094 24.33C15.1454 23.8833 15.7278 23.2767 16.1566 22.51C16.5854 21.7433 16.7998 20.9067 16.7998 20C16.7998 19.1733 16.6174 18.4 16.2526 17.68C15.8878 16.96 15.3854 16.3667 14.7454 15.9L13.9198 15.3V9C13.9198 8.64 13.8334 8.30667 13.6606 8C13.4878 7.69333 13.2542 7.45 12.9598 7.27C12.6654 7.09 12.3454 7 11.9998 7C11.6542 7 11.3342 7.09 11.0398 7.27C10.7454 7.45 10.5118 7.69333 10.339 8C10.1662 8.30667 10.0798 8.64 10.0798 9V15.3L9.25418 15.9ZM11.0398 16.12V9H12.9598V16.12C13.5102 16.2667 14.003 16.53 14.4382 16.91C14.8734 17.29 15.2158 17.7467 15.4654 18.28C15.715 18.8133 15.8398 19.3867 15.8398 20C15.8398 20.72 15.667 21.3867 15.3214 22C14.9758 22.6133 14.5086 23.1 13.9198 23.46C13.331 23.82 12.691 24 11.9998 24C11.3086 24 10.6686 23.82 10.0798 23.46C9.49098 23.1 9.02378 22.6133 8.67818 22C8.33259 21.3867 8.15979 20.72 8.15979 20C8.15979 19.3867 8.28458 18.8133 8.53418 18.28C8.78378 17.7467 9.12618 17.29 9.56139 16.91C9.99658 16.53 10.4894 16.2667 11.0398 16.12ZM11.9998 22C12.3454 22 12.6654 21.91 12.9598 21.73C13.2542 21.55 13.4878 21.3067 13.6606 21C13.8334 20.6933 13.9198 20.36 13.9198 20C13.9198 19.64 13.8334 19.3067 13.6606 19C13.4878 18.6933 13.2542 18.45 12.9598 18.27C12.6654 18.09 12.3454 18 11.9998 18C11.6542 18 11.3342 18.09 11.0398 18.27C10.7454 18.45 10.5118 18.6933 10.339 19C10.1662 19.3067 10.0798 19.64 10.0798 20C10.0798 20.36 10.1662 20.6933 10.339 21C10.5118 21.3067 10.7454 21.55 11.0398 21.73C11.3342 21.91 11.6542 22 11.9998 22Z" fill="currentColor"/>
</svg>
