<svg width="32" height="32" viewBox="0 0 32 32" fill="none" xmlns="http://www.w3.org/2000/svg">
<path d="M0 8C0 3.58172 3.58172 0 8 0H24C28.4183 0 32 3.58172 32 8V24C32 28.4183 28.4183 32 24 32H8C3.58172 32 0 28.4183 0 24V8Z" fill="#10B981"/>
<path d="M16.0001 22.6666C15.1297 22.6666 14.2977 22.4933 13.5041 22.1466C12.7446 21.8088 12.0684 21.3311 11.4753 20.7133C10.8822 20.0955 10.4236 19.3911 10.0993 18.6C9.7665 17.7733 9.6001 16.9066 9.6001 16C9.6001 15.0933 9.7665 14.2266 10.0993 13.4C10.4236 12.6088 10.8822 11.9044 11.4753 11.2866C12.0684 10.6688 12.7446 10.1911 13.5041 9.85329C14.2977 9.50663 15.1297 9.33329 16.0001 9.33329C16.8705 9.33329 17.7025 9.50663 18.4961 9.85329C19.2556 10.1911 19.9318 10.6688 20.5249 11.2866C21.118 11.9044 21.5766 12.6088 21.9009 13.4C22.2337 14.2266 22.4001 15.0933 22.4001 16C22.4001 16.9066 22.2337 17.7733 21.9009 18.6C21.5766 19.3911 21.118 20.0955 20.5249 20.7133C19.9318 21.3311 19.2556 21.8088 18.4961 22.1466C17.7025 22.4933 16.8705 22.6666 16.0001 22.6666ZM16.0001 21.3333C16.9302 21.3333 17.7921 21.0888 18.5857 20.6C19.3537 20.1288 19.9638 19.4933 20.4161 18.6933C20.8854 17.8666 21.1201 16.9688 21.1201 16C21.1201 15.0311 20.8854 14.1333 20.4161 13.3066C19.9638 12.5066 19.3537 11.8711 18.5857 11.4C17.7921 10.9111 16.9302 10.6666 16.0001 10.6666C15.07 10.6666 14.2081 10.9111 13.4145 11.4C12.6465 11.8711 12.0364 12.5066 11.5841 13.3066C11.1148 14.1333 10.8801 15.0311 10.8801 16C10.8801 16.9688 11.1148 17.8666 11.5841 18.6933C12.0364 19.4933 12.6465 20.1288 13.4145 20.6C14.2081 21.0888 15.07 21.3333 16.0001 21.3333ZM16.6401 16H19.2001V17.3333H15.3601V12.6666H16.6401V16Z" fill="white"/>
</svg>
