<svg width="16" height="24" viewBox="0 0 16 24" fill="none" xmlns="http://www.w3.org/2000/svg">
<path d="M8.0001 18.6666C7.1297 18.6666 6.2977 18.4933 5.5041 18.1466C4.74463 17.8088 4.06836 17.3311 3.4753 16.7133C2.88223 16.0955 2.42356 15.3911 2.0993 14.6C1.7665 13.7733 1.6001 12.9066 1.6001 12C1.6001 11.0933 1.7665 10.2266 2.0993 9.39996C2.42356 8.60885 2.88223 7.9044 3.4753 7.28663C4.06836 6.66885 4.74463 6.19107 5.5041 5.85329C6.2977 5.50663 7.1297 5.33329 8.0001 5.33329C8.8705 5.33329 9.7025 5.50663 10.4961 5.85329C11.2556 6.19107 11.9318 6.66885 12.5249 7.28663C13.118 7.9044 13.5766 8.60885 13.9009 9.39996C14.2337 10.2266 14.4001 11.0933 14.4001 12C14.4001 12.9066 14.2337 13.7733 13.9009 14.6C13.5766 15.3911 13.118 16.0955 12.5249 16.7133C11.9318 17.3311 11.2556 17.8088 10.4961 18.1466C9.7025 18.4933 8.8705 18.6666 8.0001 18.6666ZM8.0001 17.3333C8.93023 17.3333 9.7921 17.0888 10.5857 16.6C11.3537 16.1288 11.9638 15.4933 12.4161 14.6933C12.8854 13.8666 13.1201 12.9688 13.1201 12C13.1201 11.0311 12.8854 10.1333 12.4161 9.30663C11.9638 8.50663 11.3537 7.87107 10.5857 7.39996C9.7921 6.91107 8.93023 6.66663 8.0001 6.66663C7.06996 6.66663 6.2081 6.91107 5.4145 7.39996C4.6465 7.87107 4.03636 8.50663 3.5841 9.30663C3.11476 10.1333 2.8801 11.0311 2.8801 12C2.8801 12.9688 3.11476 13.8666 3.5841 14.6933C4.03636 15.4933 4.6465 16.1288 5.4145 16.6C6.2081 17.0888 7.06996 17.3333 8.0001 17.3333ZM8.6401 12H11.2001V13.3333H7.3601V8.66663H8.6401V12Z" fill="#6B7280"/>
</svg>
