<svg width="40" height="40" viewBox="0 0 40 40" fill="none" xmlns="http://www.w3.org/2000/svg">
<path d="M0 12C0 5.37258 5.37258 0 12 0H28C34.6274 0 40 5.37258 40 12V28C40 34.6274 34.6274 40 28 40H12C5.37258 40 0 34.6274 0 28V12Z" fill="url(#paint0_linear_7_4700)"/>
<path d="M20.0002 12.5C21.4082 12.5 22.7416 12.8333 24.0002 13.5C25.2056 14.1444 26.2216 15.0361 27.0482 16.175C27.8749 17.3139 28.4109 18.5889 28.6562 20C28.4109 21.4111 27.8749 22.6861 27.0482 23.825C26.2216 24.9639 25.2056 25.8556 24.0002 26.5C22.7416 27.1667 21.4082 27.5 20.0002 27.5C18.5922 27.5 17.2589 27.1667 16.0002 26.5C14.7949 25.8556 13.7789 24.9639 12.9522 23.825C12.1256 22.6861 11.5896 21.4111 11.3442 20C11.5896 18.5889 12.1256 17.3139 12.9522 16.175C13.7789 15.0361 14.7949 14.1444 16.0002 13.5C17.2589 12.8333 18.5922 12.5 20.0002 12.5ZM20.0002 25.8333C21.1096 25.8333 22.1656 25.5778 23.1682 25.0667C24.1389 24.5778 24.9629 23.8889 25.6402 23C26.3176 22.1111 26.7789 21.1111 27.0242 20C26.7789 18.8889 26.3176 17.8889 25.6402 17C24.9629 16.1111 24.1389 15.4222 23.1682 14.9333C22.1656 14.4222 21.1096 14.1667 20.0002 14.1667C18.8909 14.1667 17.8349 14.4222 16.8322 14.9333C15.8616 15.4222 15.0376 16.1111 14.3602 17C13.6829 17.8889 13.2216 18.8889 12.9762 20C13.2216 21.1111 13.6829 22.1111 14.3602 23C15.0376 23.8889 15.8616 24.5778 16.8322 25.0667C17.8349 25.5778 18.8909 25.8333 20.0002 25.8333ZM20.0002 23.75C19.3496 23.75 18.7496 23.5806 18.2002 23.2417C17.6509 22.9028 17.2136 22.4472 16.8882 21.875C16.5629 21.3028 16.4002 20.6778 16.4002 20C16.4002 19.3222 16.5629 18.6972 16.8882 18.125C17.2136 17.5528 17.6509 17.0972 18.2002 16.7583C18.7496 16.4194 19.3496 16.25 20.0002 16.25C20.6509 16.25 21.2509 16.4194 21.8002 16.7583C22.3496 17.0972 22.7869 17.5528 23.1122 18.125C23.4376 18.6972 23.6002 19.3222 23.6002 20C23.6002 20.6778 23.4376 21.3028 23.1122 21.875C22.7869 22.4472 22.3496 22.9028 21.8002 23.2417C21.2509 23.5806 20.6509 23.75 20.0002 23.75ZM20.0002 22.0833C20.3629 22.0833 20.6962 21.9889 21.0002 21.8C21.3042 21.6111 21.5469 21.3583 21.7282 21.0417C21.9096 20.725 22.0002 20.3778 22.0002 20C22.0002 19.6222 21.9096 19.275 21.7282 18.9583C21.5469 18.6417 21.3042 18.3889 21.0002 18.2C20.6962 18.0111 20.3629 17.9167 20.0002 17.9167C19.6376 17.9167 19.3042 18.0111 19.0002 18.2C18.6962 18.3889 18.4536 18.6417 18.2722 18.9583C18.0909 19.275 18.0002 19.6222 18.0002 20C18.0002 20.3778 18.0909 20.725 18.2722 21.0417C18.4536 21.3583 18.6962 21.6111 19.0002 21.8C19.3042 21.9889 19.6376 22.0833 20.0002 22.0833Z" fill="white"/>
<defs>
<linearGradient id="paint0_linear_7_4700" x1="0" y1="0" x2="40" y2="40" gradientUnits="userSpaceOnUse">
<stop stopColor="#FF4353"/>
<stop offset="1" stopColor="#FF6B78"/>
</linearGradient>
</defs>
</svg>
