<svg xmlns="http://www.w3.org/2000/svg" xmlns:xlink="http://www.w3.org/1999/xlink" width="500" zoomAndPan="magnify" viewBox="0 0 375 374.999991" height="500" preserveAspectRatio="xMidYMid meet" version="1.0"><defs><filter x="0%" y="0%" width="100%" height="100%" id="295cadaf60"><feColorMatrix values="0 0 0 0 1 0 0 0 0 1 0 0 0 0 1 0 0 0 1 0" color-interpolation-filters="sRGB"/></filter><g/><clipPath id="f73bba646d"><path d="M 0 26.625 L 375 26.625 L 375 348.375 L 0 348.375 Z M 0 26.625 " clip-rule="nonzero"/></clipPath><clipPath id="ada5a1fe29"><path d="M 0 0.625 L 375 0.625 L 375 322.375 L 0 322.375 Z M 0 0.625 " clip-rule="nonzero"/></clipPath><clipPath id="29e557b886"><path d="M 0 0.625 L 375 0.625 L 375 322.375 L 0 322.375 Z M 0 0.625 " clip-rule="nonzero"/></clipPath><linearGradient x1="-12.830004" gradientTransform="matrix(0.750029, 0, 0, 0.749016, 22.697537, 139.421043)" y1="261.690461" x2="451.941257" gradientUnits="userSpaceOnUse" y2="-203.082705" id="551bf43cb4"><stop stop-opacity="1" stop-color="rgb(100%, 26.269531%, 32.548523%)" offset="0"/><stop stop-opacity="1" stop-color="rgb(100%, 26.269531%, 32.548523%)" offset="0.125"/><stop stop-opacity="1" stop-color="rgb(100%, 26.269531%, 32.548523%)" offset="0.1875"/><stop stop-opacity="1" stop-color="rgb(100%, 26.269531%, 32.548523%)" offset="0.21875"/><stop stop-opacity="1" stop-color="rgb(100%, 26.269531%, 32.548523%)" offset="0.234375"/><stop stop-opacity="1" stop-color="rgb(100%, 26.609802%, 32.702637%)" offset="0.238281"/><stop stop-opacity="1" stop-color="rgb(100%, 26.950073%, 32.858276%)" offset="0.242188"/><stop stop-opacity="1" stop-color="rgb(100%, 27.365112%, 33.045959%)" offset="0.246094"/><stop stop-opacity="1" stop-color="rgb(100%, 27.780151%, 33.235168%)" offset="0.25"/><stop stop-opacity="1" stop-color="rgb(100%, 28.19519%, 33.424377%)" offset="0.253906"/><stop stop-opacity="1" stop-color="rgb(100%, 28.610229%, 33.613586%)" offset="0.257812"/><stop stop-opacity="1" stop-color="rgb(100%, 29.025269%, 33.80127%)" offset="0.261719"/><stop stop-opacity="1" stop-color="rgb(100%, 29.440308%, 33.990479%)" offset="0.265625"/><stop stop-opacity="1" stop-color="rgb(100%, 29.855347%, 34.179688%)" offset="0.269531"/><stop stop-opacity="1" stop-color="rgb(100%, 30.271912%, 34.368896%)" offset="0.273437"/><stop stop-opacity="1" stop-color="rgb(100%, 30.686951%, 34.55658%)" offset="0.277344"/><stop stop-opacity="1" stop-color="rgb(100%, 31.10199%, 34.745789%)" offset="0.28125"/><stop stop-opacity="1" stop-color="rgb(100%, 31.517029%, 34.933472%)" offset="0.285156"/><stop stop-opacity="1" stop-color="rgb(100%, 31.932068%, 35.122681%)" offset="0.289062"/><stop stop-opacity="1" stop-color="rgb(100%, 32.347107%, 35.31189%)" offset="0.292969"/><stop stop-opacity="1" stop-color="rgb(100%, 32.762146%, 35.501099%)" offset="0.296875"/><stop stop-opacity="1" stop-color="rgb(100%, 33.177185%, 35.688782%)" offset="0.300781"/><stop stop-opacity="1" stop-color="rgb(100%, 33.592224%, 35.877991%)" offset="0.304688"/><stop stop-opacity="1" stop-color="rgb(100%, 34.007263%, 36.065674%)" offset="0.308594"/><stop stop-opacity="1" stop-color="rgb(100%, 34.423828%, 36.254883%)" offset="0.3125"/><stop stop-opacity="1" stop-color="rgb(100%, 34.838867%, 36.444092%)" offset="0.316406"/><stop stop-opacity="1" stop-color="rgb(100%, 35.253906%, 36.633301%)" offset="0.320312"/><stop stop-opacity="1" stop-color="rgb(100%, 35.668945%, 36.820984%)" offset="0.324219"/><stop stop-opacity="1" stop-color="rgb(100%, 36.083984%, 37.010193%)" offset="0.328125"/><stop stop-opacity="1" stop-color="rgb(100%, 36.499023%, 37.199402%)" offset="0.332031"/><stop stop-opacity="1" stop-color="rgb(100%, 36.914062%, 37.388611%)" offset="0.335938"/><stop stop-opacity="1" stop-color="rgb(100%, 37.329102%, 37.576294%)" offset="0.339844"/><stop stop-opacity="1" stop-color="rgb(100%, 37.745667%, 37.765503%)" offset="0.34375"/><stop stop-opacity="1" stop-color="rgb(100%, 38.160706%, 37.953186%)" offset="0.347656"/><stop stop-opacity="1" stop-color="rgb(100%, 38.575745%, 38.142395%)" offset="0.351562"/><stop stop-opacity="1" stop-color="rgb(100%, 38.990784%, 38.331604%)" offset="0.355469"/><stop stop-opacity="1" stop-color="rgb(100%, 39.405823%, 38.520813%)" offset="0.359375"/><stop stop-opacity="1" stop-color="rgb(100%, 39.820862%, 38.708496%)" offset="0.363281"/><stop stop-opacity="1" stop-color="rgb(100%, 40.235901%, 38.897705%)" offset="0.367187"/><stop stop-opacity="1" stop-color="rgb(100%, 40.65094%, 39.085388%)" offset="0.371094"/><stop stop-opacity="1" stop-color="rgb(100%, 41.067505%, 39.274597%)" offset="0.375"/><stop stop-opacity="1" stop-color="rgb(100%, 41.482544%, 39.463806%)" offset="0.378906"/><stop stop-opacity="1" stop-color="rgb(100%, 41.897583%, 39.653015%)" offset="0.382812"/><stop stop-opacity="1" stop-color="rgb(100%, 42.312622%, 39.840698%)" offset="0.386719"/><stop stop-opacity="1" stop-color="rgb(100%, 42.727661%, 40.029907%)" offset="0.390625"/><stop stop-opacity="1" stop-color="rgb(100%, 43.1427%, 40.219116%)" offset="0.394531"/><stop stop-opacity="1" stop-color="rgb(100%, 43.557739%, 40.408325%)" offset="0.398438"/><stop stop-opacity="1" stop-color="rgb(100%, 43.972778%, 40.596008%)" offset="0.402344"/><stop stop-opacity="1" stop-color="rgb(100%, 44.389343%, 40.785217%)" offset="0.40625"/><stop stop-opacity="1" stop-color="rgb(100%, 44.804382%, 40.9729%)" offset="0.410156"/><stop stop-opacity="1" stop-color="rgb(100%, 45.219421%, 41.162109%)" offset="0.414062"/><stop stop-opacity="1" stop-color="rgb(100%, 45.63446%, 41.351318%)" offset="0.417969"/><stop stop-opacity="1" stop-color="rgb(100%, 46.0495%, 41.540527%)" offset="0.421875"/><stop stop-opacity="1" stop-color="rgb(100%, 46.464539%, 41.72821%)" offset="0.425781"/><stop stop-opacity="1" stop-color="rgb(100%, 46.879578%, 41.917419%)" offset="0.429688"/><stop stop-opacity="1" stop-color="rgb(100%, 47.294617%, 42.105103%)" offset="0.433594"/><stop stop-opacity="1" stop-color="rgb(100%, 47.711182%, 42.294312%)" offset="0.4375"/><stop stop-opacity="1" stop-color="rgb(100%, 48.126221%, 42.483521%)" offset="0.441406"/><stop stop-opacity="1" stop-color="rgb(100%, 48.54126%, 42.672729%)" offset="0.445312"/><stop stop-opacity="1" stop-color="rgb(100%, 48.956299%, 42.860413%)" offset="0.449219"/><stop stop-opacity="1" stop-color="rgb(100%, 49.371338%, 43.049622%)" offset="0.453125"/><stop stop-opacity="1" stop-color="rgb(100%, 49.786377%, 43.238831%)" offset="0.457031"/><stop stop-opacity="1" stop-color="rgb(100%, 50.201416%, 43.42804%)" offset="0.460938"/><stop stop-opacity="1" stop-color="rgb(100%, 50.616455%, 43.615723%)" offset="0.464844"/><stop stop-opacity="1" stop-color="rgb(100%, 51.03302%, 43.804932%)" offset="0.46875"/><stop stop-opacity="1" stop-color="rgb(100%, 51.448059%, 43.992615%)" offset="0.472656"/><stop stop-opacity="1" stop-color="rgb(100%, 51.863098%, 44.181824%)" offset="0.476562"/><stop stop-opacity="1" stop-color="rgb(100%, 52.278137%, 44.371033%)" offset="0.480469"/><stop stop-opacity="1" stop-color="rgb(100%, 52.693176%, 44.560242%)" offset="0.484375"/><stop stop-opacity="1" stop-color="rgb(100%, 53.108215%, 44.747925%)" offset="0.488281"/><stop stop-opacity="1" stop-color="rgb(100%, 53.523254%, 44.937134%)" offset="0.492188"/><stop stop-opacity="1" stop-color="rgb(100%, 53.938293%, 45.124817%)" offset="0.496094"/><stop stop-opacity="1" stop-color="rgb(100%, 54.353333%, 45.314026%)" offset="0.5"/><stop stop-opacity="1" stop-color="rgb(100%, 54.768372%, 45.503235%)" offset="0.503906"/><stop stop-opacity="1" stop-color="rgb(100%, 55.184937%, 45.692444%)" offset="0.507812"/><stop stop-opacity="1" stop-color="rgb(100%, 55.599976%, 45.880127%)" offset="0.511719"/><stop stop-opacity="1" stop-color="rgb(100%, 56.015015%, 46.069336%)" offset="0.515625"/><stop stop-opacity="1" stop-color="rgb(100%, 56.430054%, 46.258545%)" offset="0.519531"/><stop stop-opacity="1" stop-color="rgb(100%, 56.845093%, 46.447754%)" offset="0.523438"/><stop stop-opacity="1" stop-color="rgb(100%, 57.260132%, 46.635437%)" offset="0.527344"/><stop stop-opacity="1" stop-color="rgb(100%, 57.675171%, 46.824646%)" offset="0.53125"/><stop stop-opacity="1" stop-color="rgb(100%, 58.09021%, 47.012329%)" offset="0.535156"/><stop stop-opacity="1" stop-color="rgb(100%, 58.506775%, 47.201538%)" offset="0.539062"/><stop stop-opacity="1" stop-color="rgb(100%, 58.921814%, 47.390747%)" offset="0.542969"/><stop stop-opacity="1" stop-color="rgb(100%, 59.336853%, 47.579956%)" offset="0.546875"/><stop stop-opacity="1" stop-color="rgb(100%, 59.751892%, 47.767639%)" offset="0.550781"/><stop stop-opacity="1" stop-color="rgb(100%, 60.166931%, 47.956848%)" offset="0.554688"/><stop stop-opacity="1" stop-color="rgb(100%, 60.58197%, 48.144531%)" offset="0.558594"/><stop stop-opacity="1" stop-color="rgb(100%, 60.997009%, 48.33374%)" offset="0.5625"/><stop stop-opacity="1" stop-color="rgb(100%, 61.412048%, 48.522949%)" offset="0.566406"/><stop stop-opacity="1" stop-color="rgb(100%, 61.828613%, 48.712158%)" offset="0.570312"/><stop stop-opacity="1" stop-color="rgb(100%, 62.243652%, 48.899841%)" offset="0.574219"/><stop stop-opacity="1" stop-color="rgb(100%, 62.658691%, 49.08905%)" offset="0.578125"/><stop stop-opacity="1" stop-color="rgb(100%, 63.07373%, 49.278259%)" offset="0.582031"/><stop stop-opacity="1" stop-color="rgb(100%, 63.48877%, 49.467468%)" offset="0.585938"/><stop stop-opacity="1" stop-color="rgb(100%, 63.903809%, 49.655151%)" offset="0.589844"/><stop stop-opacity="1" stop-color="rgb(100%, 64.318848%, 49.84436%)" offset="0.59375"/><stop stop-opacity="1" stop-color="rgb(100%, 64.733887%, 50.032043%)" offset="0.597656"/><stop stop-opacity="1" stop-color="rgb(100%, 65.150452%, 50.221252%)" offset="0.601562"/><stop stop-opacity="1" stop-color="rgb(100%, 65.565491%, 50.410461%)" offset="0.605469"/><stop stop-opacity="1" stop-color="rgb(100%, 65.98053%, 50.59967%)" offset="0.609375"/><stop stop-opacity="1" stop-color="rgb(100%, 66.395569%, 50.787354%)" offset="0.613281"/><stop stop-opacity="1" stop-color="rgb(100%, 66.810608%, 50.976562%)" offset="0.617188"/><stop stop-opacity="1" stop-color="rgb(100%, 67.225647%, 51.164246%)" offset="0.621094"/><stop stop-opacity="1" stop-color="rgb(100%, 67.640686%, 51.353455%)" offset="0.625"/><stop stop-opacity="1" stop-color="rgb(100%, 68.055725%, 51.542664%)" offset="0.628906"/><stop stop-opacity="1" stop-color="rgb(100%, 68.47229%, 51.731873%)" offset="0.632812"/><stop stop-opacity="1" stop-color="rgb(100%, 68.887329%, 51.919556%)" offset="0.636719"/><stop stop-opacity="1" stop-color="rgb(100%, 69.302368%, 52.108765%)" offset="0.640625"/><stop stop-opacity="1" stop-color="rgb(100%, 69.717407%, 52.296448%)" offset="0.644531"/><stop stop-opacity="1" stop-color="rgb(100%, 70.132446%, 52.485657%)" offset="0.648438"/><stop stop-opacity="1" stop-color="rgb(100%, 70.547485%, 52.674866%)" offset="0.652344"/><stop stop-opacity="1" stop-color="rgb(100%, 70.962524%, 52.864075%)" offset="0.65625"/><stop stop-opacity="1" stop-color="rgb(100%, 71.377563%, 53.051758%)" offset="0.660156"/><stop stop-opacity="1" stop-color="rgb(100%, 71.794128%, 53.240967%)" offset="0.664062"/><stop stop-opacity="1" stop-color="rgb(100%, 72.209167%, 53.430176%)" offset="0.667969"/><stop stop-opacity="1" stop-color="rgb(100%, 72.624207%, 53.619385%)" offset="0.671875"/><stop stop-opacity="1" stop-color="rgb(100%, 73.039246%, 53.807068%)" offset="0.675781"/><stop stop-opacity="1" stop-color="rgb(100%, 73.454285%, 53.996277%)" offset="0.679688"/><stop stop-opacity="1" stop-color="rgb(100%, 73.869324%, 54.18396%)" offset="0.683594"/><stop stop-opacity="1" stop-color="rgb(100%, 74.284363%, 54.373169%)" offset="0.6875"/><stop stop-opacity="1" stop-color="rgb(100%, 74.699402%, 54.562378%)" offset="0.691406"/><stop stop-opacity="1" stop-color="rgb(100%, 75.115967%, 54.751587%)" offset="0.695312"/><stop stop-opacity="1" stop-color="rgb(100%, 75.531006%, 54.93927%)" offset="0.699219"/><stop stop-opacity="1" stop-color="rgb(100%, 75.946045%, 55.128479%)" offset="0.703125"/><stop stop-opacity="1" stop-color="rgb(100%, 76.361084%, 55.316162%)" offset="0.707031"/><stop stop-opacity="1" stop-color="rgb(100%, 76.776123%, 55.505371%)" offset="0.710938"/><stop stop-opacity="1" stop-color="rgb(100%, 77.191162%, 55.69458%)" offset="0.714844"/><stop stop-opacity="1" stop-color="rgb(100%, 77.606201%, 55.883789%)" offset="0.71875"/><stop stop-opacity="1" stop-color="rgb(100%, 78.02124%, 56.071472%)" offset="0.722656"/><stop stop-opacity="1" stop-color="rgb(100%, 78.436279%, 56.260681%)" offset="0.726562"/><stop stop-opacity="1" stop-color="rgb(100%, 78.851318%, 56.44989%)" offset="0.730469"/><stop stop-opacity="1" stop-color="rgb(100%, 79.267883%, 56.639099%)" offset="0.734375"/><stop stop-opacity="1" stop-color="rgb(100%, 79.682922%, 56.826782%)" offset="0.738281"/><stop stop-opacity="1" stop-color="rgb(100%, 80.097961%, 57.015991%)" offset="0.742188"/><stop stop-opacity="1" stop-color="rgb(100%, 80.513%, 57.203674%)" offset="0.746094"/><stop stop-opacity="1" stop-color="rgb(100%, 80.92804%, 57.392883%)" offset="0.75"/><stop stop-opacity="1" stop-color="rgb(100%, 81.343079%, 57.582092%)" offset="0.753906"/><stop stop-opacity="1" stop-color="rgb(100%, 81.758118%, 57.771301%)" offset="0.757812"/><stop stop-opacity="1" stop-color="rgb(100%, 82.052612%, 57.905579%)" offset="0.761719"/><stop stop-opacity="1" stop-color="rgb(100%, 82.348633%, 58.039856%)" offset="0.765625"/><stop stop-opacity="1" stop-color="rgb(100%, 82.348633%, 58.039856%)" offset="0.78125"/><stop stop-opacity="1" stop-color="rgb(100%, 82.348633%, 58.039856%)" offset="0.8125"/><stop stop-opacity="1" stop-color="rgb(100%, 82.348633%, 58.039856%)" offset="0.875"/><stop stop-opacity="1" stop-color="rgb(100%, 82.348633%, 58.039856%)" offset="1"/></linearGradient><clipPath id="cc6dfad04c"><rect x="0" width="375" y="0" height="323"/></clipPath><clipPath id="dfede9248a"><path d="M 0 0.625 L 375 0.625 L 375 322.375 L 0 322.375 Z M 0 0.625 " clip-rule="nonzero"/></clipPath><clipPath id="b7cea49003"><rect x="0" width="375" y="0" height="323"/></clipPath><clipPath id="a8952b25b6"><rect x="0" width="375" y="0" height="323"/></clipPath><mask id="08a6db4777"><g filter="url(#295cadaf60)"><g transform="matrix(1, 0, 0, 1, 0, 0)"><g clip-path="url(#a8952b25b6)"><g clip-path="url(#dfede9248a)"><g transform="matrix(1, 0, 0, 1, 0, 0)"><g clip-path="url(#b7cea49003)"><g fill="#000000" fill-opacity="1"><g transform="translate(45.215694, 193.374326)"><g><path d="M 35.15625 -19.59375 C 35.476562 -20.65625 36.09375 -21.453125 37 -21.984375 C 37.90625 -22.523438 38.84375 -22.796875 39.8125 -22.796875 C 40.875 -22.796875 41.8125 -22.503906 42.625 -21.921875 C 43.4375 -21.335938 43.84375 -20.515625 43.84375 -19.453125 C 43.84375 -18.992188 43.75 -18.507812 43.5625 -18 C 42.039062 -13.59375 39.910156 -10.066406 37.171875 -7.421875 C 34.441406 -4.785156 31.429688 -2.890625 28.140625 -1.734375 C 24.847656 -0.578125 21.582031 0 18.34375 0 C 14.957031 0 11.910156 -0.539062 9.203125 -1.625 C 6.492188 -2.71875 4.351562 -4.269531 2.78125 -6.28125 C 1.207031 -8.300781 0.421875 -10.675781 0.421875 -13.40625 C 0.421875 -14.195312 0.5 -15.007812 0.65625 -15.84375 C 0.820312 -16.675781 1.039062 -17.507812 1.3125 -18.34375 L 5.421875 -30.21875 C 6.617188 -33.695312 8.582031 -36.328125 11.3125 -38.109375 C 14.050781 -39.890625 16.972656 -40.78125 20.078125 -40.78125 C 22.722656 -40.78125 25.015625 -40.269531 26.953125 -39.25 C 28.898438 -38.238281 30.414062 -36.851562 31.5 -35.09375 C 32.59375 -33.332031 33.140625 -31.335938 33.140625 -29.109375 C 33.140625 -27.953125 32.957031 -26.679688 32.59375 -25.296875 C 31.664062 -22.191406 29.925781 -19.710938 27.375 -17.859375 C 24.832031 -16.003906 21.984375 -15.078125 18.828125 -15.078125 C 17.441406 -15.078125 16.132812 -15.273438 14.90625 -15.671875 C 13.675781 -16.066406 12.550781 -16.5625 11.53125 -17.15625 L 10.984375 -15.84375 C 10.835938 -15.519531 10.738281 -15.195312 10.6875 -14.875 C 10.644531 -14.550781 10.625 -14.222656 10.625 -13.890625 C 10.625 -12.316406 11.363281 -10.984375 12.84375 -9.890625 C 14.332031 -8.804688 16.351562 -8.265625 18.90625 -8.265625 C 20.894531 -8.265625 22.941406 -8.644531 25.046875 -9.40625 C 27.148438 -10.175781 29.101562 -11.394531 30.90625 -13.0625 C 32.71875 -14.726562 34.132812 -16.90625 35.15625 -19.59375 Z M 19.875 -32.59375 C 19.082031 -32.59375 18.289062 -32.289062 17.5 -31.6875 C 16.71875 -31.082031 16.140625 -30.25 15.765625 -29.1875 L 14.3125 -25.015625 C 15.28125 -24.460938 16.484375 -24.1875 17.921875 -24.1875 C 18.992188 -24.1875 19.988281 -24.414062 20.90625 -24.875 C 21.832031 -25.332031 22.460938 -26.144531 22.796875 -27.3125 C 22.972656 -27.820312 23.0625 -28.375 23.0625 -28.96875 C 23.0625 -29.988281 22.769531 -30.847656 22.1875 -31.546875 C 21.613281 -32.242188 20.84375 -32.59375 19.875 -32.59375 Z M 19.875 -32.59375 "/></g></g></g><g fill="#000000" fill-opacity="1"><g transform="translate(78.143846, 193.374326)"><g><path d="M 43.5625 -23.484375 C 44.582031 -23.484375 45.472656 -23.179688 46.234375 -22.578125 C 47.003906 -21.972656 47.390625 -21.070312 47.390625 -19.875 C 47.390625 -19.269531 47.226562 -18.503906 46.90625 -17.578125 C 46.582031 -16.648438 46.164062 -15.515625 45.65625 -14.171875 C 44.164062 -10.421875 42.390625 -7.523438 40.328125 -5.484375 C 38.273438 -3.453125 36.144531 -2.03125 33.9375 -1.21875 C 31.738281 -0.40625 29.664062 0 27.71875 0 C 27.03125 0 26.09375 -0.09375 24.90625 -0.28125 C 23.726562 -0.46875 22.546875 -0.828125 21.359375 -1.359375 C 20.179688 -1.890625 19.222656 -2.6875 18.484375 -3.75 C 17.179688 -2.59375 15.734375 -1.675781 14.140625 -1 C 12.546875 -0.332031 10.9375 0 9.3125 0 C 7.269531 0 5.4375 -0.472656 3.8125 -1.421875 C 2.195312 -2.367188 0.914062 -3.640625 -0.03125 -5.234375 C -0.976562 -6.835938 -1.453125 -8.585938 -1.453125 -10.484375 C -1.453125 -11.140625 -1.382812 -11.78125 -1.25 -12.40625 C -1.113281 -13.03125 -0.953125 -13.644531 -0.765625 -14.25 L 5.765625 -32.9375 C 6.691406 -35.625 8.265625 -37.601562 10.484375 -38.875 C 12.710938 -40.144531 14.960938 -40.78125 17.234375 -40.78125 C 18.992188 -40.78125 20.53125 -40.570312 21.84375 -40.15625 C 23.164062 -39.738281 24.195312 -39.300781 24.9375 -38.84375 C 25.5 -39.71875 26.242188 -40.375 27.171875 -40.8125 C 28.097656 -41.257812 29.046875 -41.484375 30.015625 -41.484375 C 31.316406 -41.484375 32.488281 -41.085938 33.53125 -40.296875 C 34.570312 -39.515625 35.09375 -38.359375 35.09375 -36.828125 C 35.09375 -36.128906 34.953125 -35.363281 34.671875 -34.53125 L 26.890625 -12.015625 C 26.660156 -11.179688 26.546875 -10.507812 26.546875 -10 C 26.546875 -8.84375 27.171875 -8.265625 28.421875 -8.265625 C 29.484375 -8.265625 30.628906 -8.625 31.859375 -9.34375 C 33.085938 -10.0625 34.300781 -11.253906 35.5 -12.921875 C 36.707031 -14.585938 37.753906 -16.835938 38.640625 -19.671875 C 39.054688 -21.003906 39.738281 -21.972656 40.6875 -22.578125 C 41.632812 -23.179688 42.59375 -23.484375 43.5625 -23.484375 Z M 20.640625 -24.1875 C 21.191406 -25.945312 21.46875 -27.3125 21.46875 -28.28125 C 21.46875 -29.488281 21.164062 -30.40625 20.5625 -31.03125 C 19.96875 -31.65625 19.34375 -31.96875 18.6875 -31.96875 C 18.132812 -31.96875 17.425781 -31.695312 16.5625 -31.15625 C 15.707031 -30.625 14.957031 -29.296875 14.3125 -27.171875 L 9.859375 -13.203125 C 9.773438 -12.878906 9.6875 -12.519531 9.59375 -12.125 C 9.5 -11.726562 9.453125 -11.300781 9.453125 -10.84375 C 9.453125 -9.125 10.21875 -8.265625 11.75 -8.265625 C 12.488281 -8.265625 13.410156 -8.625 14.515625 -9.34375 C 15.628906 -10.0625 16.554688 -11.554688 17.296875 -13.828125 Z M 20.640625 -24.1875 "/></g></g></g><g fill="#000000" fill-opacity="1"><g transform="translate(114.614894, 193.374326)"><g><path d="M 36.890625 -19.671875 C 37.265625 -20.679688 37.832031 -21.40625 38.59375 -21.84375 C 39.363281 -22.289062 40.164062 -22.515625 41 -22.515625 C 42.101562 -22.515625 43.128906 -22.1875 44.078125 -21.53125 C 45.035156 -20.882812 45.515625 -20.050781 45.515625 -19.03125 C 45.515625 -18.894531 45.515625 -18.742188 45.515625 -18.578125 C 45.515625 -18.421875 45.46875 -18.273438 45.375 -18.140625 C 43.75 -13.460938 41.523438 -9.765625 38.703125 -7.046875 C 35.878906 -4.335938 32.660156 -2.40625 29.046875 -1.25 C 25.429688 -0.09375 21.609375 0.484375 17.578125 0.484375 C 13.503906 0.484375 10.039062 -0.046875 7.1875 -1.109375 C 4.34375 -2.171875 2.175781 -3.617188 0.6875 -5.453125 C -0.789062 -7.285156 -1.53125 -9.335938 -1.53125 -11.609375 C -1.53125 -13.085938 -1.273438 -14.585938 -0.765625 -16.109375 C -0.253906 -17.640625 0.519531 -18.992188 1.5625 -20.171875 C 2.601562 -21.359375 3.890625 -22.140625 5.421875 -22.515625 C 6.804688 -25.109375 8.21875 -27.734375 9.65625 -30.390625 C 11.09375 -33.054688 12.484375 -35.710938 13.828125 -38.359375 C 14.472656 -39.703125 15.410156 -40.707031 16.640625 -41.375 C 17.867188 -42.050781 19.128906 -42.390625 20.421875 -42.390625 C 22.179688 -42.390625 23.582031 -41.796875 24.625 -40.609375 C 25.675781 -39.429688 26.203125 -38.101562 26.203125 -36.625 C 26.203125 -35.601562 25.863281 -34.59375 25.1875 -33.59375 C 24.519531 -32.601562 23.695312 -31.894531 22.71875 -31.46875 C 22.863281 -30.40625 23.234375 -29.296875 23.828125 -28.140625 C 24.429688 -26.984375 25.082031 -25.800781 25.78125 -24.59375 C 26.75 -22.976562 27.671875 -21.226562 28.546875 -19.34375 C 29.429688 -17.46875 29.875 -15.515625 29.875 -13.484375 C 29.875 -13.015625 29.847656 -12.570312 29.796875 -12.15625 C 29.753906 -11.738281 29.6875 -11.300781 29.59375 -10.84375 C 31.21875 -11.769531 32.628906 -12.960938 33.828125 -14.421875 C 35.035156 -15.878906 36.054688 -17.628906 36.890625 -19.671875 Z M 14.875 -21.546875 C 15.46875 -20.941406 15.90625 -20.253906 16.1875 -19.484375 C 16.46875 -18.722656 16.609375 -17.945312 16.609375 -17.15625 C 16.609375 -15.445312 16.050781 -13.882812 14.9375 -12.46875 C 13.820312 -11.0625 12.25 -10.359375 10.21875 -10.359375 C 9.976562 -10.359375 9.71875 -10.367188 9.4375 -10.390625 C 9.164062 -10.410156 8.890625 -10.441406 8.609375 -10.484375 C 8.984375 -9.609375 9.65625 -8.914062 10.625 -8.40625 C 11.601562 -7.894531 12.671875 -7.640625 13.828125 -7.640625 C 15.679688 -7.734375 17.046875 -8.367188 17.921875 -9.546875 C 18.804688 -10.734375 19.25 -12.140625 19.25 -13.765625 C 19.25 -15.378906 18.890625 -16.984375 18.171875 -18.578125 C 17.453125 -20.179688 16.5625 -21.609375 15.5 -22.859375 Z M 14.875 -21.546875 "/></g></g></g><g fill="#000000" fill-opacity="1"><g transform="translate(149.279766, 193.374326)"><g><path d="M 35.15625 -19.59375 C 35.476562 -20.65625 36.09375 -21.453125 37 -21.984375 C 37.90625 -22.523438 38.84375 -22.796875 39.8125 -22.796875 C 40.875 -22.796875 41.8125 -22.503906 42.625 -21.921875 C 43.4375 -21.335938 43.84375 -20.515625 43.84375 -19.453125 C 43.84375 -18.992188 43.75 -18.507812 43.5625 -18 C 42.039062 -13.59375 39.910156 -10.066406 37.171875 -7.421875 C 34.441406 -4.785156 31.429688 -2.890625 28.140625 -1.734375 C 24.847656 -0.578125 21.582031 0 18.34375 0 C 14.957031 0 11.910156 -0.539062 9.203125 -1.625 C 6.492188 -2.71875 4.351562 -4.269531 2.78125 -6.28125 C 1.207031 -8.300781 0.421875 -10.675781 0.421875 -13.40625 C 0.421875 -14.195312 0.5 -15.007812 0.65625 -15.84375 C 0.820312 -16.675781 1.039062 -17.507812 1.3125 -18.34375 L 5.421875 -30.21875 C 6.617188 -33.695312 8.582031 -36.328125 11.3125 -38.109375 C 14.050781 -39.890625 16.972656 -40.78125 20.078125 -40.78125 C 22.722656 -40.78125 25.015625 -40.269531 26.953125 -39.25 C 28.898438 -38.238281 30.414062 -36.851562 31.5 -35.09375 C 32.59375 -33.332031 33.140625 -31.335938 33.140625 -29.109375 C 33.140625 -27.953125 32.957031 -26.679688 32.59375 -25.296875 C 31.664062 -22.191406 29.925781 -19.710938 27.375 -17.859375 C 24.832031 -16.003906 21.984375 -15.078125 18.828125 -15.078125 C 17.441406 -15.078125 16.132812 -15.273438 14.90625 -15.671875 C 13.675781 -16.066406 12.550781 -16.5625 11.53125 -17.15625 L 10.984375 -15.84375 C 10.835938 -15.519531 10.738281 -15.195312 10.6875 -14.875 C 10.644531 -14.550781 10.625 -14.222656 10.625 -13.890625 C 10.625 -12.316406 11.363281 -10.984375 12.84375 -9.890625 C 14.332031 -8.804688 16.351562 -8.265625 18.90625 -8.265625 C 20.894531 -8.265625 22.941406 -8.644531 25.046875 -9.40625 C 27.148438 -10.175781 29.101562 -11.394531 30.90625 -13.0625 C 32.71875 -14.726562 34.132812 -16.90625 35.15625 -19.59375 Z M 19.875 -32.59375 C 19.082031 -32.59375 18.289062 -32.289062 17.5 -31.6875 C 16.71875 -31.082031 16.140625 -30.25 15.765625 -29.1875 L 14.3125 -25.015625 C 15.28125 -24.460938 16.484375 -24.1875 17.921875 -24.1875 C 18.992188 -24.1875 19.988281 -24.414062 20.90625 -24.875 C 21.832031 -25.332031 22.460938 -26.144531 22.796875 -27.3125 C 22.972656 -27.820312 23.0625 -28.375 23.0625 -28.96875 C 23.0625 -29.988281 22.769531 -30.847656 22.1875 -31.546875 C 21.613281 -32.242188 20.84375 -32.59375 19.875 -32.59375 Z M 19.875 -32.59375 "/></g></g></g><g fill="#000000" fill-opacity="1"><g transform="translate(182.207918, 193.374326)"><g><path d="M 61.5625 -23.28125 C 62.625 -23.28125 63.570312 -22.976562 64.40625 -22.375 C 65.238281 -21.769531 65.65625 -20.910156 65.65625 -19.796875 C 65.65625 -19.566406 65.632812 -19.320312 65.59375 -19.0625 C 65.550781 -18.8125 65.484375 -18.570312 65.390625 -18.34375 C 63.804688 -13.707031 61.9375 -10.054688 59.78125 -7.390625 C 57.632812 -4.734375 55.390625 -2.835938 53.046875 -1.703125 C 50.710938 -0.566406 48.382812 0 46.0625 0 C 44.03125 0 42.15625 -0.378906 40.4375 -1.140625 C 38.726562 -1.910156 37.351562 -3.035156 36.3125 -4.515625 C 35.269531 -5.992188 34.75 -7.773438 34.75 -9.859375 C 34.75 -11.390625 35.023438 -12.941406 35.578125 -14.515625 L 40.859375 -28.90625 C 41.046875 -29.457031 41.140625 -29.96875 41.140625 -30.4375 C 41.140625 -31.082031 40.929688 -31.601562 40.515625 -32 C 40.097656 -32.394531 39.5625 -32.59375 38.90625 -32.59375 C 37.75 -32.59375 36.59375 -32.09375 35.4375 -31.09375 C 34.28125 -30.09375 33.378906 -28.710938 32.734375 -26.953125 L 24.734375 -4.375 C 24.222656 -2.894531 23.410156 -1.796875 22.296875 -1.078125 C 21.191406 -0.359375 20.0625 0 18.90625 0 C 17.738281 0 16.703125 -0.359375 15.796875 -1.078125 C 14.898438 -1.796875 14.453125 -2.800781 14.453125 -4.09375 C 14.453125 -4.84375 14.640625 -5.703125 15.015625 -6.671875 L 23.140625 -29.25 C 23.328125 -29.664062 23.421875 -30.109375 23.421875 -30.578125 C 23.421875 -31.222656 23.195312 -31.71875 22.75 -32.0625 C 22.3125 -32.414062 21.742188 -32.59375 21.046875 -32.59375 C 20.035156 -32.59375 19.003906 -32.1875 17.953125 -31.375 C 16.910156 -30.5625 16.019531 -29.414062 15.28125 -27.9375 L 7.015625 -4.171875 C 6.554688 -2.773438 5.789062 -1.726562 4.71875 -1.03125 C 3.65625 -0.34375 2.519531 0 1.3125 0 C 0.113281 0 -0.957031 -0.34375 -1.90625 -1.03125 C -2.851562 -1.726562 -3.328125 -2.726562 -3.328125 -4.03125 C -3.328125 -4.582031 -3.238281 -5.140625 -3.0625 -5.703125 L 8.0625 -37.734375 C 8.476562 -38.753906 9.179688 -39.515625 10.171875 -40.015625 C 11.171875 -40.523438 12.203125 -40.78125 13.265625 -40.78125 C 14.054688 -40.78125 14.796875 -40.640625 15.484375 -40.359375 C 16.179688 -40.085938 16.71875 -39.695312 17.09375 -39.1875 C 17.738281 -39.5625 18.5 -39.921875 19.375 -40.265625 C 20.257812 -40.609375 21.421875 -40.78125 22.859375 -40.78125 C 24.898438 -40.78125 26.519531 -40.457031 27.71875 -39.8125 C 28.925781 -39.164062 29.898438 -38.425781 30.640625 -37.59375 C 32.265625 -38.882812 33.910156 -39.738281 35.578125 -40.15625 C 37.242188 -40.570312 38.703125 -40.78125 39.953125 -40.78125 C 42.085938 -40.78125 44.019531 -40.382812 45.75 -39.59375 C 47.488281 -38.8125 48.878906 -37.710938 49.921875 -36.296875 C 50.960938 -34.890625 51.484375 -33.191406 51.484375 -31.203125 C 51.484375 -30.597656 51.425781 -29.957031 51.3125 -29.28125 C 51.195312 -28.613281 51.023438 -27.957031 50.796875 -27.3125 L 44.890625 -11.125 C 44.835938 -10.976562 44.800781 -10.820312 44.78125 -10.65625 C 44.757812 -10.5 44.75 -10.328125 44.75 -10.140625 C 44.75 -9.628906 44.921875 -9.1875 45.265625 -8.8125 C 45.617188 -8.445312 46.140625 -8.265625 46.828125 -8.265625 C 48.453125 -8.265625 50.164062 -9.179688 51.96875 -11.015625 C 53.78125 -12.847656 55.453125 -15.847656 56.984375 -20.015625 C 57.347656 -21.117188 57.96875 -21.9375 58.84375 -22.46875 C 59.726562 -23.007812 60.632812 -23.28125 61.5625 -23.28125 Z M 61.5625 -23.28125 "/></g></g></g><g fill="#000000" fill-opacity="1"><g transform="translate(236.810297, 193.374326)"><g><path d="M 18.6875 -47.1875 C 17.113281 -47.1875 15.769531 -47.75 14.65625 -48.875 C 13.550781 -50.007812 13 -51.367188 13 -52.953125 C 13 -54.523438 13.550781 -55.851562 14.65625 -56.9375 C 15.769531 -58.03125 17.113281 -58.578125 18.6875 -58.578125 C 20.257812 -58.578125 21.601562 -58.03125 22.71875 -56.9375 C 23.832031 -55.851562 24.390625 -54.523438 24.390625 -52.953125 C 24.390625 -51.367188 23.832031 -50.007812 22.71875 -48.875 C 21.601562 -47.75 20.257812 -47.1875 18.6875 -47.1875 Z M 9.3125 -11.75 C 9.175781 -11.332031 9.109375 -10.957031 9.109375 -10.625 C 9.109375 -9.976562 9.347656 -9.421875 9.828125 -8.953125 C 10.316406 -8.492188 10.957031 -8.265625 11.75 -8.265625 C 13.132812 -8.265625 14.691406 -9.117188 16.421875 -10.828125 C 18.160156 -12.546875 19.84375 -15.65625 21.46875 -20.15625 C 21.882812 -21.21875 22.519531 -22.003906 23.375 -22.515625 C 24.238281 -23.023438 25.132812 -23.28125 26.0625 -23.28125 C 27.125 -23.28125 28.082031 -22.96875 28.9375 -22.34375 C 29.789062 -21.71875 30.21875 -20.867188 30.21875 -19.796875 C 30.21875 -19.378906 30.148438 -18.960938 30.015625 -18.546875 C 28.390625 -13.773438 26.523438 -10.035156 24.421875 -7.328125 C 22.316406 -4.617188 20.09375 -2.71875 17.75 -1.625 C 15.414062 -0.539062 13.113281 0 10.84375 0 C 8.707031 0 6.75 -0.40625 4.96875 -1.21875 C 3.1875 -2.03125 1.75 -3.195312 0.65625 -4.71875 C -0.425781 -6.25 -0.96875 -8.101562 -0.96875 -10.28125 C -0.96875 -10.882812 -0.851562 -11.601562 -0.625 -12.4375 C -0.394531 -13.269531 -0.1875 -14.035156 0 -14.734375 C 0.738281 -16.910156 1.535156 -19.222656 2.390625 -21.671875 C 3.253906 -24.128906 4.113281 -26.585938 4.96875 -29.046875 C 5.820312 -31.503906 6.617188 -33.820312 7.359375 -36 C 7.921875 -37.613281 8.722656 -38.8125 9.765625 -39.59375 C 10.804688 -40.382812 11.859375 -40.78125 12.921875 -40.78125 C 14.128906 -40.78125 15.207031 -40.382812 16.15625 -39.59375 C 17.101562 -38.8125 17.578125 -37.65625 17.578125 -36.125 C 17.578125 -35.800781 17.503906 -35.40625 17.359375 -34.9375 C 17.222656 -34.476562 17.085938 -34.019531 16.953125 -33.5625 Z M 9.3125 -11.75 "/></g></g></g><g fill="#000000" fill-opacity="1"><g transform="translate(255.983647, 193.374326)"><g><path d="M 38.765625 -20.015625 C 39.140625 -21.171875 39.773438 -22.015625 40.671875 -22.546875 C 41.578125 -23.078125 42.492188 -23.34375 43.421875 -23.34375 C 44.492188 -23.34375 45.445312 -23.050781 46.28125 -22.46875 C 47.113281 -21.894531 47.53125 -21.050781 47.53125 -19.9375 C 47.53125 -19.476562 47.414062 -18.945312 47.1875 -18.34375 C 45.601562 -13.851562 43.742188 -10.265625 41.609375 -7.578125 C 39.484375 -4.890625 37.226562 -2.953125 34.84375 -1.765625 C 32.457031 -0.585938 30.082031 0 27.71875 0 C 25.78125 0 23.953125 -0.367188 22.234375 -1.109375 C 20.523438 -1.847656 19.144531 -2.945312 18.09375 -4.40625 C 17.050781 -5.863281 16.53125 -7.660156 16.53125 -9.796875 C 16.53125 -10.535156 16.613281 -11.285156 16.78125 -12.046875 C 16.945312 -12.816406 17.164062 -13.597656 17.4375 -14.390625 L 22.515625 -28.703125 C 22.742188 -29.390625 22.859375 -29.96875 22.859375 -30.4375 C 22.859375 -31.082031 22.660156 -31.601562 22.265625 -32 C 21.867188 -32.394531 21.347656 -32.59375 20.703125 -32.59375 C 19.734375 -32.59375 18.679688 -32.175781 17.546875 -31.34375 C 16.410156 -30.507812 15.378906 -29.210938 14.453125 -27.453125 C 13.660156 -25.222656 12.789062 -22.753906 11.84375 -20.046875 C 10.894531 -17.335938 9.945312 -14.640625 9 -11.953125 C 8.050781 -9.265625 7.160156 -6.785156 6.328125 -4.515625 C 5.816406 -2.941406 4.945312 -1.769531 3.71875 -1 C 2.488281 -0.238281 1.269531 0.140625 0.0625 0.140625 C -1.039062 0.140625 -2.019531 -0.179688 -2.875 -0.828125 C -3.738281 -1.484375 -4.171875 -2.457031 -4.171875 -3.75 C -4.171875 -4.351562 -4.078125 -4.929688 -3.890625 -5.484375 L 7.71875 -37.9375 C 8.082031 -38.90625 8.679688 -39.617188 9.515625 -40.078125 C 10.347656 -40.546875 11.253906 -40.78125 12.234375 -40.78125 C 13.160156 -40.78125 14.015625 -40.617188 14.796875 -40.296875 C 15.585938 -39.972656 16.078125 -39.488281 16.265625 -38.84375 C 18.023438 -40.132812 20.25 -40.78125 22.9375 -40.78125 C 24.78125 -40.78125 26.476562 -40.351562 28.03125 -39.5 C 29.582031 -38.644531 30.832031 -37.488281 31.78125 -36.03125 C 32.738281 -34.570312 33.21875 -32.914062 33.21875 -31.0625 C 33.21875 -29.945312 32.960938 -28.671875 32.453125 -27.234375 L 27.03125 -11.8125 C 26.800781 -11.019531 26.6875 -10.441406 26.6875 -10.078125 C 26.6875 -8.867188 27.332031 -8.265625 28.625 -8.265625 C 30.25 -8.265625 31.960938 -9.179688 33.765625 -11.015625 C 35.578125 -12.847656 37.242188 -15.847656 38.765625 -20.015625 Z M 38.765625 -20.015625 "/></g></g></g><g fill="#000000" fill-opacity="1"><g transform="translate(292.454706, 193.374326)"><g><path d="M 44.1875 -23.34375 C 45.257812 -23.34375 46.234375 -23.039062 47.109375 -22.4375 C 47.992188 -21.84375 48.4375 -21.007812 48.4375 -19.9375 C 48.4375 -19.757812 48.410156 -19.539062 48.359375 -19.28125 C 48.316406 -19.03125 48.25 -18.785156 48.15625 -18.546875 C 46.625 -14.015625 44.769531 -10.390625 42.59375 -7.671875 C 40.414062 -4.960938 38.132812 -3.003906 35.75 -1.796875 C 33.363281 -0.597656 31.015625 0 28.703125 0 C 26.984375 0 25.320312 -0.34375 23.71875 -1.03125 C 22.125 -1.726562 20.796875 -2.660156 19.734375 -3.828125 C 18.347656 -2.484375 16.796875 -1.507812 15.078125 -0.90625 C 13.359375 -0.300781 11.691406 0 10.078125 0 C 8.085938 0 6.269531 -0.425781 4.625 -1.28125 C 2.976562 -2.144531 1.65625 -3.347656 0.65625 -4.890625 C -0.332031 -6.441406 -0.828125 -8.238281 -0.828125 -10.28125 C -0.828125 -10.925781 -0.769531 -11.582031 -0.65625 -12.25 C -0.539062 -12.925781 -0.367188 -13.59375 -0.140625 -14.25 L 6.46875 -33 C 7.394531 -35.644531 8.929688 -37.601562 11.078125 -38.875 C 13.234375 -40.144531 15.445312 -40.78125 17.71875 -40.78125 C 21.144531 -40.78125 23.945312 -39.578125 26.125 -37.171875 L 32.453125 -55.09375 C 33.097656 -56.90625 33.894531 -58.226562 34.84375 -59.0625 C 35.789062 -59.894531 36.800781 -60.3125 37.875 -60.3125 C 39.070312 -60.3125 40.179688 -59.914062 41.203125 -59.125 C 42.222656 -58.34375 42.734375 -57.207031 42.734375 -55.71875 C 42.734375 -55.351562 42.660156 -54.90625 42.515625 -54.375 C 42.378906 -53.84375 42.242188 -53.367188 42.109375 -52.953125 L 27.9375 -12.015625 C 27.695312 -11.328125 27.578125 -10.773438 27.578125 -10.359375 C 27.578125 -9.796875 27.765625 -9.304688 28.140625 -8.890625 C 28.515625 -8.472656 29.046875 -8.265625 29.734375 -8.265625 C 31.316406 -8.265625 32.984375 -9.203125 34.734375 -11.078125 C 36.492188 -12.953125 38.164062 -15.976562 39.75 -20.15625 C 40.070312 -21.257812 40.660156 -22.066406 41.515625 -22.578125 C 42.367188 -23.085938 43.257812 -23.34375 44.1875 -23.34375 Z M 11.609375 -10.703125 C 12.066406 -10.609375 12.644531 -10.664062 13.34375 -10.875 C 14.039062 -11.082031 14.78125 -11.59375 15.5625 -12.40625 C 16.351562 -13.21875 17.09375 -14.476562 17.78125 -16.1875 L 20.640625 -24.1875 C 20.960938 -25.0625 21.179688 -25.832031 21.296875 -26.5 C 21.410156 -27.175781 21.46875 -27.769531 21.46875 -28.28125 C 21.46875 -29.488281 21.164062 -30.40625 20.5625 -31.03125 C 19.96875 -31.65625 19.34375 -31.96875 18.6875 -31.96875 C 18.132812 -31.96875 17.441406 -31.675781 16.609375 -31.09375 C 15.773438 -30.507812 15.007812 -29.203125 14.3125 -27.171875 L 10.359375 -15.5625 C 10.265625 -15.238281 10.171875 -14.878906 10.078125 -14.484375 C 9.984375 -14.085938 9.9375 -13.660156 9.9375 -13.203125 C 9.9375 -12.648438 10.050781 -12.140625 10.28125 -11.671875 C 10.507812 -11.210938 10.953125 -10.890625 11.609375 -10.703125 Z M 11.609375 -10.703125 "/></g></g></g></g></g></g></g></g></g></mask><clipPath id="b68dbe0ed2"><path d="M 0 0.625 L 375 0.625 L 375 322.375 L 0 322.375 Z M 0 0.625 " clip-rule="nonzero"/></clipPath><clipPath id="ddfa33fd55"><rect x="0" width="375" y="0" height="323"/></clipPath><clipPath id="67141d4862"><rect x="0" width="375" y="0" height="323"/></clipPath></defs><rect x="-37.5" width="450" fill="#ffffff" y="-37.499999" height="449.999989" fill-opacity="1"/><g clip-path="url(#f73bba646d)"><g transform="matrix(1, 0, 0, 1, 0, 26)"><g clip-path="url(#67141d4862)"><g clip-path="url(#ada5a1fe29)"><g mask="url(#08a6db4777)"><g transform="matrix(1, 0, 0, 1, 0, 0)"><g clip-path="url(#ddfa33fd55)"><g clip-path="url(#b68dbe0ed2)"><path fill="url(#551bf43cb4)" d="M 0 0.625 L 0 322.375 L 375 322.375 L 375 0.625 Z M 0 0.625 " fill-rule="nonzero"/></g></g></g></g></g></g></g></g></svg>